<svg width="100" height="100" viewBox="0 0 100 100" fill="none" xmlns="http://www.w3.org/2000/svg">
<circle cx="50" cy="50" r="50" fill="#1F1F1F"/>
<rect x="16.605" y="15" width="65.6664" height="7.87512" rx="3.93756" fill="white"/>
<rect x="24.2308" y="15" width="65.9807" height="7.62577" rx="3.81289" transform="rotate(90 24.2308 15)" fill="white"/>
<path d="M78.9253 15C81.0311 15 82.7382 16.7071 82.7382 18.8129L82.7382 53.039L75.1124 53.039L75.1124 18.8129C75.1124 16.7071 76.8195 15 78.9253 15V15Z" fill="white"/>
<rect x="16.605" y="73.5312" width="39.3998" height="7.87512" rx="3.93756" fill="white"/>
<rect x="61.7504" y="73.4971" width="20.9709" height="7.87512" fill="#00EAFF"/>
<rect x="61.7504" y="73.4971" width="20.9709" height="7.87512" fill="#00EAFF"/>
<rect x="61.7504" y="73.4971" width="20.9709" height="7.87512" fill="#00EAFF"/>
<rect x="61.7504" y="73.4971" width="20.9709" height="7.87512" fill="#00EAFF"/>
<rect x="61.7504" y="73.4971" width="20.9709" height="7.87512" fill="#00EAFF"/>
<rect x="61.7504" y="73.4971" width="20.9709" height="7.87512" fill="#00EAFF"/>
<rect x="61.7504" y="73.4971" width="20.9709" height="7.87512" fill="#00EAFF"/>
<rect x="61.7504" y="73.4971" width="20.9709" height="7.87512" fill="#00EAFF"/>
<rect x="82.7211" y="60.3009" width="21.0713" height="7.83761" transform="rotate(90 82.7211 60.3009)" fill="#00EAFF"/>
<rect x="82.7211" y="60.3009" width="21.0713" height="7.83761" transform="rotate(90 82.7211 60.3009)" fill="#00EAFF"/>
<rect x="82.7211" y="60.3009" width="21.0713" height="7.83761" transform="rotate(90 82.7211 60.3009)" fill="#00EAFF"/>
<rect x="82.7211" y="60.3009" width="21.0713" height="7.83761" transform="rotate(90 82.7211 60.3009)" fill="#00EAFF"/>
<path d="M37.3453 64.084C37.0092 64.084 36.7343 63.8867 36.5204 63.4922C36.3065 63.0977 36.1385 62.6424 36.0163 62.1265C35.9246 61.5802 35.8788 61.125 35.8788 60.7608C35.8788 60.5787 35.9093 60.4118 35.9704 60.2601C36.0315 60.078 36.1079 59.9262 36.1996 59.8048L54.8519 37.3165H40.8283C40.4311 37.3165 40.1256 37.1496 39.9117 36.8158C39.7284 36.4516 39.6826 35.8598 39.7742 35.0404L39.8201 34.4486C39.9117 33.5988 40.0798 33.0222 40.3242 32.7187C40.5992 32.3849 40.9505 32.218 41.3782 32.218H62.0471C62.3526 32.218 62.597 32.4152 62.7803 32.8098C62.9942 33.2043 63.147 33.6747 63.2386 34.221C63.3303 34.7369 63.3761 35.1921 63.3761 35.5867C63.3761 35.9205 63.2844 36.1936 63.1011 36.4061L44.3571 58.9854H59.664C60.1222 58.9854 60.443 59.1524 60.6264 59.4862C60.8097 59.82 60.8555 60.3966 60.7639 61.2161L60.718 61.7623C60.6264 62.6424 60.4431 63.2494 60.1681 63.5832C59.9237 63.9171 59.5723 64.084 59.114 64.084H37.3453Z" fill="white"/>
<path d="M36.5204 63.4922C36.7343 63.8867 37.0092 64.084 37.3453 64.084H59.114C59.5723 64.084 59.9237 63.9171 60.1681 63.5832C60.4431 63.2494 60.6264 62.6424 60.718 61.7623L60.7639 61.2161C60.8555 60.3966 60.8097 59.82 60.6264 59.4862C60.443 59.1524 60.1222 58.9854 59.664 58.9854L37.4828 58.9854C36.2454 59.4179 36.0315 60.078 35.9704 60.2601C35.9093 60.4118 35.8788 60.5787 35.8788 60.7608C35.8788 61.125 35.9246 61.5802 36.0163 62.1265C36.1385 62.6424 36.3065 63.0977 36.5204 63.4922Z" fill="#BFBFBF"/>
</svg>
