<svg width="50" height="50" viewBox="0 0 50 50" fill="none" xmlns="http://www.w3.org/2000/svg">
<path fill-rule="evenodd" clip-rule="evenodd" d="M27.0064 4.76256C26.8808 4.59431 26.7226 4.45309 26.5413 4.34732C26.36 4.24155 26.1592 4.17341 25.9509 4.14697C25.7427 4.12052 25.5312 4.13632 25.3292 4.1934C25.1272 4.25049 24.9387 4.3477 24.7751 4.47923C20.782 7.6851 18.1484 12.2819 17.4022 17.348C16.0335 16.3544 14.834 15.1465 13.8501 13.7709C13.7164 13.584 13.5432 13.4289 13.3427 13.3167C13.1422 13.2044 12.9194 13.1378 12.6903 13.1215C12.4611 13.1051 12.2311 13.1396 12.0167 13.2223C11.8024 13.305 11.6089 13.434 11.4501 13.6001C8.69837 16.478 6.93427 20.1573 6.41336 24.1049C5.89245 28.0525 6.64178 32.0634 8.55279 35.5566C10.4638 39.0499 13.4373 41.8441 17.0425 43.5344C20.6477 45.2248 24.6974 45.7235 28.605 44.9584C32.5126 44.1933 36.0752 42.2041 38.7767 39.2789C41.4782 36.3537 43.1783 32.6445 43.6308 28.6884C44.0832 24.7324 43.2646 20.7351 41.2933 17.2755C39.3221 13.8158 36.3007 11.0736 32.6668 9.4459C30.4328 8.35958 28.4918 6.75361 27.0064 4.76256ZM32.8126 29.6876C32.8118 30.8176 32.5659 31.9341 32.0918 32.9599C31.6177 33.9857 30.9267 34.8964 30.0664 35.6292C29.2062 36.3621 28.1972 36.8996 27.1091 37.2046C26.021 37.5097 24.8797 37.5751 23.7638 37.3962C22.648 37.2174 21.5843 36.7986 20.646 36.1688C19.7077 35.539 18.9172 34.7131 18.3291 33.7482C17.7409 32.7832 17.3691 31.7022 17.2393 30.5796C17.1095 29.457 17.2248 28.3196 17.5772 27.2459C18.8855 28.2146 20.3897 28.9334 22.0209 29.3292C22.4637 26.4778 23.8809 23.8679 26.0314 21.9438C27.9081 22.1937 29.6302 23.1167 30.8776 24.541C32.1249 25.9654 32.8125 27.7943 32.8126 29.6876Z" fill="url(#paint0_linear_15_168)"/>
<defs>
<linearGradient id="paint0_linear_15_168" x1="25.0022" y1="4.13452" x2="25.0022" y2="45.3078" gradientUnits="userSpaceOnUse">
<stop stop-color="#2AC3D1"/>
<stop offset="0.442708" stop-color="#0047FF"/>
</linearGradient>
</defs>
</svg>
