<svg width="39" height="39" viewBox="0 0 39 39" fill="none" xmlns="http://www.w3.org/2000/svg">
<path d="M16.8453 10.2172H11.026L16.2328 18.9571L10.4747 27.9432H15.6815C18.3686 23.558 20.1034 21.3517 23.6447 17.9108L28.3001 10.2172H22.6033L19.6018 15.5104L16.8453 10.2172Z" fill="#0047FF"/>
<path d="M16.8453 10.2172H11.026L16.2328 18.9571L10.4747 27.9432H15.6815C18.3686 23.558 20.1034 21.3517 23.6447 17.9108L28.3001 10.2172H22.6033L19.6018 15.5104L16.8453 10.2172Z" fill="#0047FF"/>
<path d="M23.6447 19.8802C22.1126 21.3253 21.4596 22.2451 20.6432 24.0656L22.7871 27.9431H28.6064L23.6447 19.8802Z" fill="#0033B5"/>
<rect width="37.9785" height="4.55461" rx="2.2773" fill="#0047FF"/>
<rect width="37.9785" height="4.55461" rx="2.2773" fill="#0047FF"/>
<rect width="37.9785" height="4.55461" rx="2.2773" fill="#0047FF"/>
<rect width="37.9785" height="4.55461" rx="2.2773" fill="#0047FF"/>
<rect x="4.4104" width="38.1602" height="4.4104" rx="2.2052" transform="rotate(90 4.4104 0)" fill="#0047FF"/>
<rect x="4.4104" width="38.1602" height="4.4104" rx="2.2052" transform="rotate(90 4.4104 0)" fill="#0047FF"/>
<rect x="4.4104" width="38.1602" height="4.4104" rx="2.2052" transform="rotate(90 4.4104 0)" fill="#0047FF"/>
<rect x="4.4104" width="38.1602" height="4.4104" rx="2.2052" transform="rotate(90 4.4104 0)" fill="#0047FF"/>
<path d="M36.0433 -9.68537e-08C37.2612 -4.33629e-08 38.2485 0.987302 38.2485 2.2052L38.2485 22L33.8381 22L33.8381 2.2052C33.8381 0.987301 34.8254 -1.50344e-07 36.0433 -9.68537e-08Z" fill="#0047FF"/>
<path d="M36.0433 -9.68537e-08C37.2612 -4.33629e-08 38.2485 0.987302 38.2485 2.2052L38.2485 22L33.8381 22L33.8381 2.2052C33.8381 0.987301 34.8254 -1.50344e-07 36.0433 -9.68537e-08Z" fill="#0047FF"/>
<path d="M36.0433 -9.68537e-08C37.2612 -4.33629e-08 38.2485 0.987302 38.2485 2.2052L38.2485 22L33.8381 22L33.8381 2.2052C33.8381 0.987301 34.8254 -1.50344e-07 36.0433 -9.68537e-08Z" fill="#0047FF"/>
<path d="M36.0433 -9.68537e-08C37.2612 -4.33629e-08 38.2485 0.987302 38.2485 2.2052L38.2485 22L33.8381 22L33.8381 2.2052C33.8381 0.987301 34.8254 -1.50344e-07 36.0433 -9.68537e-08Z" fill="#0047FF"/>
<rect y="33.8518" width="22.7871" height="4.55461" rx="2.2773" fill="#0047FF"/>
<rect y="33.8518" width="22.7871" height="4.55461" rx="2.2773" fill="#0047FF"/>
<rect y="33.8518" width="22.7871" height="4.55461" rx="2.2773" fill="#0047FF"/>
<rect y="33.8518" width="22.7871" height="4.55461" rx="2.2773" fill="#0047FF"/>
<rect x="26.11" y="33.832" width="12.1286" height="4.55461" fill="#00EAFF"/>
<rect x="26.11" y="33.832" width="12.1286" height="4.55461" fill="#00EAFF"/>
<rect x="26.11" y="33.832" width="12.1286" height="4.55461" fill="#00EAFF"/>
<rect x="26.11" y="33.832" width="12.1286" height="4.55461" fill="#00EAFF"/>
<rect x="26.11" y="33.832" width="12.1286" height="4.55461" fill="#00EAFF"/>
<rect x="26.11" y="33.832" width="12.1286" height="4.55461" fill="#00EAFF"/>
<rect x="26.11" y="33.832" width="12.1286" height="4.55461" fill="#00EAFF"/>
<rect x="26.11" y="33.832" width="12.1286" height="4.55461" fill="#00EAFF"/>
<rect x="38.2386" y="26.2" width="12.1867" height="4.53291" transform="rotate(90 38.2386 26.2)" fill="#00EAFF"/>
<rect x="38.2386" y="26.2" width="12.1867" height="4.53291" transform="rotate(90 38.2386 26.2)" fill="#00EAFF"/>
<rect x="38.2386" y="26.2" width="12.1867" height="4.53291" transform="rotate(90 38.2386 26.2)" fill="#00EAFF"/>
<rect x="38.2386" y="26.2" width="12.1867" height="4.53291" transform="rotate(90 38.2386 26.2)" fill="#00EAFF"/>
<rect x="10.7" y="33.85" width="12.1286" height="4.55461" fill="#0047FF"/>
</svg>
