<svg width="258" height="259" viewBox="0 0 258 259" fill="none" xmlns="http://www.w3.org/2000/svg">
<rect width="255.527" height="30.6444" rx="15.3222" fill="white"/>
<rect width="255.527" height="30.6444" rx="15.3222" fill="white"/>
<rect width="255.527" height="30.6444" rx="15.3222" fill="white"/>
<rect width="255.527" height="30.6444" rx="15.3222" fill="white"/>
<rect x="29.6741" width="256.75" height="29.6741" rx="14.837" transform="rotate(90 29.6741 0)" fill="white"/>
<rect x="29.6741" width="256.75" height="29.6741" rx="14.837" transform="rotate(90 29.6741 0)" fill="white"/>
<rect x="29.6741" width="256.75" height="29.6741" rx="14.837" transform="rotate(90 29.6741 0)" fill="white"/>
<rect x="29.6741" width="256.75" height="29.6741" rx="14.837" transform="rotate(90 29.6741 0)" fill="white"/>
<path d="M242.506 -6.51652e-07C250.7 -2.91755e-07 257.343 6.64277 257.343 14.837L257.343 148.021L227.669 148.021L227.669 14.837C227.669 6.64278 234.312 -1.01155e-06 242.506 -6.51652e-07V-6.51652e-07Z" fill="white"/>
<path d="M242.506 -6.51652e-07C250.7 -2.91755e-07 257.343 6.64277 257.343 14.837L257.343 148.021L227.669 148.021L227.669 14.837C227.669 6.64278 234.312 -1.01155e-06 242.506 -6.51652e-07V-6.51652e-07Z" fill="white"/>
<path d="M242.506 -6.51652e-07C250.7 -2.91755e-07 257.343 6.64277 257.343 14.837L257.343 148.021L227.669 148.021L227.669 14.837C227.669 6.64278 234.312 -1.01155e-06 242.506 -6.51652e-07V-6.51652e-07Z" fill="white"/>
<path d="M242.506 -6.51652e-07C250.7 -2.91755e-07 257.343 6.64277 257.343 14.837L257.343 148.021L227.669 148.021L227.669 14.837C227.669 6.64278 234.312 -1.01155e-06 242.506 -6.51652e-07V-6.51652e-07Z" fill="white"/>
<rect y="227.762" width="153.316" height="30.6444" rx="15.3222" fill="white"/>
<rect y="227.762" width="153.316" height="30.6444" rx="15.3222" fill="white"/>
<rect y="227.762" width="153.316" height="30.6444" rx="15.3222" fill="white"/>
<rect y="227.762" width="153.316" height="30.6444" rx="15.3222" fill="white"/>
<rect x="175.674" y="227.629" width="81.6038" height="30.6444" fill="#00EAFF"/>
<rect x="175.674" y="227.629" width="81.6038" height="30.6444" fill="#00EAFF"/>
<rect x="175.674" y="227.629" width="81.6038" height="30.6444" fill="#00EAFF"/>
<rect x="175.674" y="227.629" width="81.6038" height="30.6444" fill="#00EAFF"/>
<rect x="175.674" y="227.629" width="81.6038" height="30.6444" fill="#00EAFF"/>
<rect x="175.674" y="227.629" width="81.6038" height="30.6444" fill="#00EAFF"/>
<rect x="175.674" y="227.629" width="81.6038" height="30.6444" fill="#00EAFF"/>
<rect x="175.674" y="227.629" width="81.6038" height="30.6444" fill="#00EAFF"/>
<rect x="257.277" y="176.279" width="81.9943" height="30.4984" transform="rotate(90 257.277 176.279)" fill="#00EAFF"/>
<rect x="257.277" y="176.279" width="81.9943" height="30.4984" transform="rotate(90 257.277 176.279)" fill="#00EAFF"/>
<rect x="257.277" y="176.279" width="81.9943" height="30.4984" transform="rotate(90 257.277 176.279)" fill="#00EAFF"/>
<rect x="257.277" y="176.279" width="81.9943" height="30.4984" transform="rotate(90 257.277 176.279)" fill="#00EAFF"/>
<path d="M76.8 197C75.3333 197 74.1333 196.133 73.2 194.4C72.2667 192.667 71.5333 190.667 71 188.4C70.6 186 70.4 184 70.4 182.4C70.4 181.6 70.5333 180.867 70.8 180.2C71.0667 179.4 71.4 178.733 71.8 178.2L153.2 79.4H92C90.2667 79.4 88.9333 78.6667 88 77.2C87.2 75.6 87 73 87.4 69.4L87.6 66.8C88 63.0667 88.7333 60.5333 89.8 59.2C91 57.7333 92.5333 57 94.4 57H184.6C185.933 57 187 57.8667 187.8 59.6C188.733 61.3333 189.4 63.4 189.8 65.8C190.2 68.0667 190.4 70.0667 190.4 71.8C190.4 73.2667 190 74.4667 189.2 75.4L107.4 174.6H174.2C176.2 174.6 177.6 175.333 178.4 176.8C179.2 178.267 179.4 180.8 179 184.4L178.8 186.8C178.4 190.667 177.6 193.333 176.4 194.8C175.333 196.267 173.8 197 171.8 197H76.8Z" fill="white"/>
<path d="M73.2 194.4C74.1333 196.133 75.3333 197 76.8 197H171.8C173.8 197 175.333 196.267 176.4 194.8C177.6 193.333 178.4 190.667 178.8 186.8L179 184.4C179.4 180.8 179.2 178.267 178.4 176.8C177.6 175.333 176.2 174.6 174.2 174.6H77.4C72 176.5 71.0666 179.4 70.8 180.2C70.5333 180.867 70.4 181.6 70.4 182.4C70.4 184 70.6 186 71 188.4C71.5333 190.667 72.2666 192.667 73.2 194.4Z" fill="black" fill-opacity="0.25"/>
</svg>
