<svg width="256" height="258" viewBox="0 0 256 258" fill="none" xmlns="http://www.w3.org/2000/svg">
<path d="M112.747 68.3844H73.7982L108.647 126.881L70.1083 187.026H104.957C122.943 157.676 134.554 142.909 158.256 119.878L189.415 68.3844H151.286L131.197 103.812L112.747 68.3844Z" fill="white"/>
<path d="M158.256 133.06C148.002 142.732 143.631 148.888 138.167 161.073L152.516 187.026H191.465L158.256 133.06Z" fill="#BAC2D7"/>
<rect x="3.05176e-05" width="254.193" height="30.4844" rx="15.2422" fill="white"/>
<rect x="3.05176e-05" width="254.193" height="30.4844" rx="15.2422" fill="white"/>
<rect x="3.05176e-05" width="254.193" height="30.4844" rx="15.2422" fill="white"/>
<rect x="3.05176e-05" width="254.193" height="30.4844" rx="15.2422" fill="white"/>
<rect x="29.5192" width="255.41" height="29.5192" rx="14.7596" transform="rotate(90 29.5192 0)" fill="white"/>
<rect x="29.5192" width="255.41" height="29.5192" rx="14.7596" transform="rotate(90 29.5192 0)" fill="white"/>
<rect x="29.5192" width="255.41" height="29.5192" rx="14.7596" transform="rotate(90 29.5192 0)" fill="white"/>
<rect x="29.5192" width="255.41" height="29.5192" rx="14.7596" transform="rotate(90 29.5192 0)" fill="white"/>
<path d="M241.24 -6.4825e-07C249.392 -2.90232e-07 256 6.60809 256 14.7596L256 147.248L226.481 147.248L226.481 14.7596C226.481 6.60809 233.089 -1.00627e-06 241.24 -6.4825e-07V-6.4825e-07Z" fill="white"/>
<path d="M241.24 -6.4825e-07C249.392 -2.90232e-07 256 6.60809 256 14.7596L256 147.248L226.481 147.248L226.481 14.7596C226.481 6.60809 233.089 -1.00627e-06 241.24 -6.4825e-07V-6.4825e-07Z" fill="white"/>
<path d="M241.24 -6.4825e-07C249.392 -2.90232e-07 256 6.60809 256 14.7596L256 147.248L226.481 147.248L226.481 14.7596C226.481 6.60809 233.089 -1.00627e-06 241.24 -6.4825e-07V-6.4825e-07Z" fill="white"/>
<path d="M241.24 -6.4825e-07C249.392 -2.90232e-07 256 6.60809 256 14.7596L256 147.248L226.481 147.248L226.481 14.7596C226.481 6.60809 233.089 -1.00627e-06 241.24 -6.4825e-07V-6.4825e-07Z" fill="white"/>
<rect x="3.05176e-05" y="226.573" width="152.516" height="30.4844" rx="15.2422" fill="white"/>
<rect x="3.05176e-05" y="226.573" width="152.516" height="30.4844" rx="15.2422" fill="white"/>
<rect x="3.05176e-05" y="226.573" width="152.516" height="30.4844" rx="15.2422" fill="white"/>
<rect x="3.05176e-05" y="226.573" width="152.516" height="30.4844" rx="15.2422" fill="white"/>
<rect x="174.756" y="226.441" width="81.1778" height="30.4844" fill="#00EAFF"/>
<rect x="174.756" y="226.441" width="81.1778" height="30.4844" fill="#00EAFF"/>
<rect x="174.756" y="226.441" width="81.1778" height="30.4844" fill="#00EAFF"/>
<rect x="174.756" y="226.441" width="81.1778" height="30.4844" fill="#00EAFF"/>
<rect x="174.756" y="226.441" width="81.1778" height="30.4844" fill="#00EAFF"/>
<rect x="174.756" y="226.441" width="81.1778" height="30.4844" fill="#00EAFF"/>
<rect x="174.756" y="226.441" width="81.1778" height="30.4844" fill="#00EAFF"/>
<rect x="174.756" y="226.441" width="81.1778" height="30.4844" fill="#00EAFF"/>
<rect x="255.934" y="175.359" width="81.5663" height="30.3392" transform="rotate(90 255.934 175.359)" fill="#00EAFF"/>
<rect x="255.934" y="175.359" width="81.5663" height="30.3392" transform="rotate(90 255.934 175.359)" fill="#00EAFF"/>
<rect x="255.934" y="175.359" width="81.5663" height="30.3392" transform="rotate(90 255.934 175.359)" fill="#00EAFF"/>
<rect x="255.934" y="175.359" width="81.5663" height="30.3392" transform="rotate(90 255.934 175.359)" fill="#00EAFF"/>
<rect x="71.6158" y="226.561" width="81.1778" height="30.4844" fill="white"/>
</svg>
