<svg width="474" height="474" viewBox="0 0 474 474" fill="none" xmlns="http://www.w3.org/2000/svg">
<g filter="url(#filter0_d_176_2)">
<circle cx="237" cy="233" r="232" fill="white" stroke="url(#paint0_linear_176_2)" stroke-width="2"/>
<rect x="92.0001" y="88" width="287.17" height="34.4392" rx="17.2196" fill="#0047FF"/>
<rect x="92.0001" y="88" width="287.17" height="34.4392" rx="17.2196" fill="#0047FF"/>
<rect x="92.0001" y="88" width="287.17" height="34.4392" rx="17.2196" fill="#0047FF"/>
<rect x="92.0001" y="88" width="287.17" height="34.4392" rx="17.2196" fill="#0047FF"/>
<rect x="125.349" y="88" width="288.545" height="33.3488" rx="16.6744" transform="rotate(90 125.349 88)" fill="#0047FF"/>
<rect x="125.349" y="88" width="288.545" height="33.3488" rx="16.6744" transform="rotate(90 125.349 88)" fill="#0047FF"/>
<rect x="125.349" y="88" width="288.545" height="33.3488" rx="16.6744" transform="rotate(90 125.349 88)" fill="#0047FF"/>
<rect x="125.349" y="88" width="288.545" height="33.3488" rx="16.6744" transform="rotate(90 125.349 88)" fill="#0047FF"/>
<path d="M364.537 88C373.746 88 381.212 95.4654 381.212 104.674L381.212 254.351L347.863 254.351L347.863 104.674C347.863 95.4654 355.328 88 364.537 88V88Z" fill="#0047FF"/>
<path d="M364.537 88C373.746 88 381.212 95.4654 381.212 104.674L381.212 254.351L347.863 254.351L347.863 104.674C347.863 95.4654 355.328 88 364.537 88V88Z" fill="#0047FF"/>
<path d="M364.537 88C373.746 88 381.212 95.4654 381.212 104.674L381.212 254.351L347.863 254.351L347.863 104.674C347.863 95.4654 355.328 88 364.537 88V88Z" fill="#0047FF"/>
<path d="M364.537 88C373.746 88 381.212 95.4654 381.212 104.674L381.212 254.351L347.863 254.351L347.863 104.674C347.863 95.4654 355.328 88 364.537 88V88Z" fill="#0047FF"/>
<rect x="92.0001" y="343.967" width="172.302" height="34.4392" rx="17.2196" fill="#0047FF"/>
<rect x="92.0001" y="343.967" width="172.302" height="34.4392" rx="17.2196" fill="#0047FF"/>
<rect x="92.0001" y="343.967" width="172.302" height="34.4392" rx="17.2196" fill="#0047FF"/>
<rect x="92.0001" y="343.967" width="172.302" height="34.4392" rx="17.2196" fill="#0047FF"/>
<rect x="289.428" y="343.818" width="91.7093" height="34.4392" fill="#00EAFF"/>
<rect x="289.428" y="343.818" width="91.7093" height="34.4392" fill="#00EAFF"/>
<rect x="289.428" y="343.818" width="91.7093" height="34.4392" fill="#00EAFF"/>
<rect x="289.428" y="343.818" width="91.7093" height="34.4392" fill="#00EAFF"/>
<rect x="289.428" y="343.818" width="91.7093" height="34.4392" fill="#00EAFF"/>
<rect x="289.428" y="343.818" width="91.7093" height="34.4392" fill="#00EAFF"/>
<rect x="289.428" y="343.818" width="91.7093" height="34.4392" fill="#00EAFF"/>
<rect x="289.428" y="343.818" width="91.7093" height="34.4392" fill="#00EAFF"/>
<rect x="381.137" y="286.109" width="92.1482" height="34.2752" transform="rotate(90 381.137 286.109)" fill="#00EAFF"/>
<rect x="381.137" y="286.109" width="92.1482" height="34.2752" transform="rotate(90 381.137 286.109)" fill="#00EAFF"/>
<rect x="381.137" y="286.109" width="92.1482" height="34.2752" transform="rotate(90 381.137 286.109)" fill="#00EAFF"/>
<rect x="381.137" y="286.109" width="92.1482" height="34.2752" transform="rotate(90 381.137 286.109)" fill="#00EAFF"/>
<path d="M182.701 302.653C181.231 302.653 180.029 301.79 179.094 300.065C178.158 298.339 177.424 296.348 176.889 294.092C176.488 291.703 176.288 289.712 176.288 288.12C176.288 287.324 176.421 286.594 176.689 285.93C176.956 285.134 177.29 284.47 177.691 283.939L259.261 185.594H197.933C196.196 185.594 194.86 184.864 193.925 183.404C193.123 181.811 192.922 179.223 193.323 175.64L193.524 173.052C193.925 169.336 194.659 166.814 195.728 165.487C196.931 164.027 198.467 163.297 200.338 163.297H290.726C292.062 163.297 293.131 164.16 293.933 165.885C294.868 167.61 295.536 169.668 295.937 172.056C296.338 174.313 296.538 176.304 296.538 178.029C296.538 179.489 296.137 180.683 295.336 181.612L213.365 280.356H280.304C282.309 280.356 283.712 281.086 284.513 282.546C285.315 284.006 285.515 286.527 285.114 290.111L284.914 292.5C284.513 296.348 283.712 299.003 282.509 300.463C281.44 301.923 279.904 302.653 277.899 302.653H182.701Z" fill="#0047FF"/>
<path d="M179.094 300.065C180.029 301.79 181.231 302.653 182.701 302.653H277.899C279.904 302.653 281.44 301.923 282.509 300.463C283.712 299.003 284.513 296.348 284.914 292.5L285.114 290.111C285.515 286.527 285.315 284.006 284.513 282.546C283.712 281.086 282.309 280.356 280.304 280.356L183.302 280.356C177.891 282.247 176.956 285.134 176.689 285.93C176.421 286.594 176.288 287.324 176.288 288.12C176.288 289.712 176.488 291.703 176.889 294.092C177.424 296.348 178.158 298.339 179.094 300.065Z" fill="#0033B5"/>
</g>
<defs>
<filter id="filter0_d_176_2" x="0" y="0" width="474" height="474" filterUnits="userSpaceOnUse" color-interpolation-filters="sRGB">
<feFlood flood-opacity="0" result="BackgroundImageFix"/>
<feColorMatrix in="SourceAlpha" type="matrix" values="0 0 0 0 0 0 0 0 0 0 0 0 0 0 0 0 0 0 127 0" result="hardAlpha"/>
<feOffset dy="4"/>
<feGaussianBlur stdDeviation="2"/>
<feComposite in2="hardAlpha" operator="out"/>
<feColorMatrix type="matrix" values="0 0 0 0 0 0 0 0 0 0 0 0 0 0 0 0 0 0 0.25 0"/>
<feBlend mode="normal" in2="BackgroundImageFix" result="effect1_dropShadow_176_2"/>
<feBlend mode="normal" in="SourceGraphic" in2="effect1_dropShadow_176_2" result="shape"/>
</filter>
<linearGradient id="paint0_linear_176_2" x1="237" y1="0" x2="237" y2="466" gradientUnits="userSpaceOnUse">
<stop stop-color="#2AC3D1"/>
<stop offset="0.369792" stop-color="#0047FF"/>
</linearGradient>
</defs>
</svg>
