<svg width="715" height="474" viewBox="0 0 715 474" fill="none" xmlns="http://www.w3.org/2000/svg">
<g clip-path="url(#clip0_84_136)">
<g filter="url(#filter0_d_84_136)">
<path d="M232.002 465.814C360.58 465.814 464.814 361.762 464.814 233.407C464.814 105.052 360.58 1 232.002 1C110.014 1 9.93892 94.6581 0 213.871H307.725V252.943H1.67134e-06C9.93892 372.156 110.014 465.814 232.002 465.814Z" fill="#0052FF"/>
</g>
</g>
<g filter="url(#filter1_d_84_136)">
<circle cx="478" cy="233" r="232" fill="white" stroke="url(#paint0_linear_84_136)" stroke-width="2"/>
</g>
<path d="M459.883 163.384H414.669L455.124 231.291L410.386 301.11H450.84C471.719 267.039 485.197 249.896 512.712 223.161L548.883 163.384H504.621L481.3 204.511L459.883 163.384Z" fill="#0047FF"/>
<path d="M459.883 163.384H414.669L455.124 231.291L410.386 301.11H450.84C471.719 267.039 485.197 249.896 512.712 223.161L548.883 163.384H504.621L481.3 204.511L459.883 163.384Z" fill="#0047FF"/>
<path d="M512.712 238.464C500.808 249.691 495.735 256.837 489.391 270.982L506.049 301.11H551.263L512.712 238.464Z" fill="#0033B5"/>
<rect x="329" y="84" width="295.081" height="35.3879" rx="17.694" fill="#0047FF"/>
<rect x="329" y="84" width="295.081" height="35.3879" rx="17.694" fill="#0047FF"/>
<rect x="329" y="84" width="295.081" height="35.3879" rx="17.694" fill="#0047FF"/>
<rect x="329" y="84" width="295.081" height="35.3879" rx="17.694" fill="#0047FF"/>
<rect x="363.267" y="84" width="296.494" height="34.2675" rx="17.1337" transform="rotate(90 363.267 84)" fill="#0047FF"/>
<rect x="363.267" y="84" width="296.494" height="34.2675" rx="17.1337" transform="rotate(90 363.267 84)" fill="#0047FF"/>
<rect x="363.267" y="84" width="296.494" height="34.2675" rx="17.1337" transform="rotate(90 363.267 84)" fill="#0047FF"/>
<rect x="363.267" y="84" width="296.494" height="34.2675" rx="17.1337" transform="rotate(90 363.267 84)" fill="#0047FF"/>
<path d="M609.045 84C618.508 84 626.179 91.671 626.179 101.134L626.179 254.933L591.911 254.933L591.911 101.134C591.911 91.671 599.582 84 609.045 84V84Z" fill="#0047FF"/>
<path d="M609.045 84C618.508 84 626.179 91.671 626.179 101.134L626.179 254.933L591.911 254.933L591.911 101.134C591.911 91.671 599.582 84 609.045 84V84Z" fill="#0047FF"/>
<path d="M609.045 84C618.508 84 626.179 91.671 626.179 101.134L626.179 254.933L591.911 254.933L591.911 101.134C591.911 91.671 599.582 84 609.045 84V84Z" fill="#0047FF"/>
<path d="M609.045 84C618.508 84 626.179 91.671 626.179 101.134L626.179 254.933L591.911 254.933L591.911 101.134C591.911 91.671 599.582 84 609.045 84V84Z" fill="#0047FF"/>
<rect x="329" y="347.018" width="177.049" height="35.3879" rx="17.694" fill="#0047FF"/>
<rect x="329" y="347.018" width="177.049" height="35.3879" rx="17.694" fill="#0047FF"/>
<rect x="329" y="347.018" width="177.049" height="35.3879" rx="17.694" fill="#0047FF"/>
<rect x="329" y="347.018" width="177.049" height="35.3879" rx="17.694" fill="#0047FF"/>
<rect x="531.867" y="346.865" width="94.2356" height="35.3879" fill="#00EAFF"/>
<rect x="531.867" y="346.865" width="94.2356" height="35.3879" fill="#00EAFF"/>
<rect x="531.867" y="346.865" width="94.2356" height="35.3879" fill="#00EAFF"/>
<rect x="531.867" y="346.865" width="94.2356" height="35.3879" fill="#00EAFF"/>
<rect x="531.867" y="346.865" width="94.2356" height="35.3879" fill="#00EAFF"/>
<rect x="531.867" y="346.865" width="94.2356" height="35.3879" fill="#00EAFF"/>
<rect x="531.867" y="346.865" width="94.2356" height="35.3879" fill="#00EAFF"/>
<rect x="531.867" y="346.865" width="94.2356" height="35.3879" fill="#00EAFF"/>
<rect x="626.102" y="287.566" width="94.6867" height="35.2194" transform="rotate(90 626.102 287.566)" fill="#00EAFF"/>
<rect x="626.102" y="287.566" width="94.6867" height="35.2194" transform="rotate(90 626.102 287.566)" fill="#00EAFF"/>
<rect x="626.102" y="287.566" width="94.6867" height="35.2194" transform="rotate(90 626.102 287.566)" fill="#00EAFF"/>
<rect x="626.102" y="287.566" width="94.6867" height="35.2194" transform="rotate(90 626.102 287.566)" fill="#00EAFF"/>
<rect x="412.135" y="347.004" width="94.2356" height="35.3879" fill="#0047FF"/>
<defs>
<filter id="filter0_d_84_136" x="-4" y="1" width="472.814" height="472.814" filterUnits="userSpaceOnUse" color-interpolation-filters="sRGB">
<feFlood flood-opacity="0" result="BackgroundImageFix"/>
<feColorMatrix in="SourceAlpha" type="matrix" values="0 0 0 0 0 0 0 0 0 0 0 0 0 0 0 0 0 0 127 0" result="hardAlpha"/>
<feOffset dy="4"/>
<feGaussianBlur stdDeviation="2"/>
<feComposite in2="hardAlpha" operator="out"/>
<feColorMatrix type="matrix" values="0 0 0 0 0 0 0 0 0 0 0 0 0 0 0 0 0 0 0.25 0"/>
<feBlend mode="normal" in2="BackgroundImageFix" result="effect1_dropShadow_84_136"/>
<feBlend mode="normal" in="SourceGraphic" in2="effect1_dropShadow_84_136" result="shape"/>
</filter>
<filter id="filter1_d_84_136" x="241" y="0" width="474" height="474" filterUnits="userSpaceOnUse" color-interpolation-filters="sRGB">
<feFlood flood-opacity="0" result="BackgroundImageFix"/>
<feColorMatrix in="SourceAlpha" type="matrix" values="0 0 0 0 0 0 0 0 0 0 0 0 0 0 0 0 0 0 127 0" result="hardAlpha"/>
<feOffset dy="4"/>
<feGaussianBlur stdDeviation="2"/>
<feComposite in2="hardAlpha" operator="out"/>
<feColorMatrix type="matrix" values="0 0 0 0 0 0 0 0 0 0 0 0 0 0 0 0 0 0 0.25 0"/>
<feBlend mode="normal" in2="BackgroundImageFix" result="effect1_dropShadow_84_136"/>
<feBlend mode="normal" in="SourceGraphic" in2="effect1_dropShadow_84_136" result="shape"/>
</filter>
<linearGradient id="paint0_linear_84_136" x1="478" y1="0" x2="478" y2="466" gradientUnits="userSpaceOnUse">
<stop stop-color="#2AC3D1"/>
<stop offset="0.369792" stop-color="#0047FF"/>
</linearGradient>
<clipPath id="clip0_84_136">
<rect width="469" height="474" fill="white"/>
</clipPath>
</defs>
</svg>
