<svg width="715" height="474" viewBox="0 0 715 474" fill="none" xmlns="http://www.w3.org/2000/svg">
<g clip-path="url(#clip0_84_136)">
<g filter="url(#filter0_d_84_136)">
<path d="M232.002 465.814C360.58 465.814 464.814 361.762 464.814 233.407C464.814 105.052 360.58 1 232.002 1C110.014 1 9.93892 94.6581 0 213.871H307.725V252.943H1.67134e-06C9.93892 372.156 110.014 465.814 232.002 465.814Z" fill="#0052FF"/>
</g>
</g>
<g filter="url(#filter1_d_84_136)">
<circle cx="478" cy="233" r="232" fill="white" stroke="url(#paint0_linear_84_136)" stroke-width="2"/>
<rect x="333" y="88" width="287.17" height="34.4392" rx="17.2196" fill="#0047FF"/>
<rect x="333" y="88" width="287.17" height="34.4392" rx="17.2196" fill="#0047FF"/>
<rect x="333" y="88" width="287.17" height="34.4392" rx="17.2196" fill="#0047FF"/>
<rect x="333" y="88" width="287.17" height="34.4392" rx="17.2196" fill="#0047FF"/>
<rect x="366.349" y="88" width="288.545" height="33.3488" rx="16.6744" transform="rotate(90 366.349 88)" fill="#0047FF"/>
<rect x="366.349" y="88" width="288.545" height="33.3488" rx="16.6744" transform="rotate(90 366.349 88)" fill="#0047FF"/>
<rect x="366.349" y="88" width="288.545" height="33.3488" rx="16.6744" transform="rotate(90 366.349 88)" fill="#0047FF"/>
<rect x="366.349" y="88" width="288.545" height="33.3488" rx="16.6744" transform="rotate(90 366.349 88)" fill="#0047FF"/>
<path d="M605.537 88C614.746 88 622.212 95.4654 622.212 104.674L622.212 254.351L588.863 254.351L588.863 104.674C588.863 95.4654 596.328 88 605.537 88V88Z" fill="#0047FF"/>
<path d="M605.537 88C614.746 88 622.212 95.4654 622.212 104.674L622.212 254.351L588.863 254.351L588.863 104.674C588.863 95.4654 596.328 88 605.537 88V88Z" fill="#0047FF"/>
<path d="M605.537 88C614.746 88 622.212 95.4654 622.212 104.674L622.212 254.351L588.863 254.351L588.863 104.674C588.863 95.4654 596.328 88 605.537 88V88Z" fill="#0047FF"/>
<path d="M605.537 88C614.746 88 622.212 95.4654 622.212 104.674L622.212 254.351L588.863 254.351L588.863 104.674C588.863 95.4654 596.328 88 605.537 88V88Z" fill="#0047FF"/>
<rect x="333" y="343.967" width="172.302" height="34.4392" rx="17.2196" fill="#0047FF"/>
<rect x="333" y="343.967" width="172.302" height="34.4392" rx="17.2196" fill="#0047FF"/>
<rect x="333" y="343.967" width="172.302" height="34.4392" rx="17.2196" fill="#0047FF"/>
<rect x="333" y="343.967" width="172.302" height="34.4392" rx="17.2196" fill="#0047FF"/>
<rect x="530.428" y="343.818" width="91.7093" height="34.4392" fill="#00EAFF"/>
<rect x="530.428" y="343.818" width="91.7093" height="34.4392" fill="#00EAFF"/>
<rect x="530.428" y="343.818" width="91.7093" height="34.4392" fill="#00EAFF"/>
<rect x="530.428" y="343.818" width="91.7093" height="34.4392" fill="#00EAFF"/>
<rect x="530.428" y="343.818" width="91.7093" height="34.4392" fill="#00EAFF"/>
<rect x="530.428" y="343.818" width="91.7093" height="34.4392" fill="#00EAFF"/>
<rect x="530.428" y="343.818" width="91.7093" height="34.4392" fill="#00EAFF"/>
<rect x="530.428" y="343.818" width="91.7093" height="34.4392" fill="#00EAFF"/>
<rect x="622.137" y="286.108" width="92.1482" height="34.2752" transform="rotate(90 622.137 286.108)" fill="#00EAFF"/>
<rect x="622.137" y="286.108" width="92.1482" height="34.2752" transform="rotate(90 622.137 286.108)" fill="#00EAFF"/>
<rect x="622.137" y="286.108" width="92.1482" height="34.2752" transform="rotate(90 622.137 286.108)" fill="#00EAFF"/>
<rect x="622.137" y="286.108" width="92.1482" height="34.2752" transform="rotate(90 622.137 286.108)" fill="#00EAFF"/>
<path d="M423.701 302.653C422.231 302.653 421.029 301.79 420.094 300.065C419.158 298.339 418.423 296.348 417.889 294.092C417.488 291.703 417.288 289.712 417.288 288.12C417.288 287.324 417.421 286.594 417.689 285.93C417.956 285.134 418.29 284.47 418.691 283.939L500.261 185.594H438.933C437.196 185.594 435.86 184.864 434.924 183.404C434.123 181.811 433.922 179.223 434.323 175.64L434.524 173.052C434.924 169.336 435.659 166.814 436.728 165.487C437.931 164.027 439.467 163.297 441.338 163.297H531.726C533.062 163.297 534.131 164.16 534.933 165.885C535.868 167.61 536.536 169.668 536.937 172.056C537.338 174.313 537.538 176.304 537.538 178.029C537.538 179.489 537.137 180.683 536.336 181.612L454.365 280.356H521.304C523.309 280.356 524.711 281.086 525.513 282.546C526.315 284.006 526.515 286.527 526.114 290.111L525.914 292.5C525.513 296.348 524.711 299.003 523.509 300.463C522.44 301.923 520.904 302.653 518.899 302.653H423.701Z" fill="#0047FF"/>
<path d="M420.094 300.065C421.029 301.79 422.231 302.653 423.701 302.653H518.899C520.904 302.653 522.44 301.923 523.509 300.463C524.711 299.003 525.513 296.348 525.914 292.5L526.114 290.111C526.515 286.527 526.315 284.006 525.513 282.546C524.711 281.086 523.309 280.356 521.304 280.356L424.302 280.356C418.891 282.247 417.956 285.134 417.689 285.93C417.421 286.594 417.288 287.324 417.288 288.12C417.288 289.712 417.488 291.703 417.889 294.092C418.423 296.348 419.158 298.339 420.094 300.065Z" fill="#0033B5"/>
</g>
<defs>
<filter id="filter0_d_84_136" x="-4" y="1" width="472.814" height="472.814" filterUnits="userSpaceOnUse" color-interpolation-filters="sRGB">
<feFlood flood-opacity="0" result="BackgroundImageFix"/>
<feColorMatrix in="SourceAlpha" type="matrix" values="0 0 0 0 0 0 0 0 0 0 0 0 0 0 0 0 0 0 127 0" result="hardAlpha"/>
<feOffset dy="4"/>
<feGaussianBlur stdDeviation="2"/>
<feComposite in2="hardAlpha" operator="out"/>
<feColorMatrix type="matrix" values="0 0 0 0 0 0 0 0 0 0 0 0 0 0 0 0 0 0 0.25 0"/>
<feBlend mode="normal" in2="BackgroundImageFix" result="effect1_dropShadow_84_136"/>
<feBlend mode="normal" in="SourceGraphic" in2="effect1_dropShadow_84_136" result="shape"/>
</filter>
<filter id="filter1_d_84_136" x="241" y="0" width="474" height="474" filterUnits="userSpaceOnUse" color-interpolation-filters="sRGB">
<feFlood flood-opacity="0" result="BackgroundImageFix"/>
<feColorMatrix in="SourceAlpha" type="matrix" values="0 0 0 0 0 0 0 0 0 0 0 0 0 0 0 0 0 0 127 0" result="hardAlpha"/>
<feOffset dy="4"/>
<feGaussianBlur stdDeviation="2"/>
<feComposite in2="hardAlpha" operator="out"/>
<feColorMatrix type="matrix" values="0 0 0 0 0 0 0 0 0 0 0 0 0 0 0 0 0 0 0.25 0"/>
<feBlend mode="normal" in2="BackgroundImageFix" result="effect1_dropShadow_84_136"/>
<feBlend mode="normal" in="SourceGraphic" in2="effect1_dropShadow_84_136" result="shape"/>
</filter>
<linearGradient id="paint0_linear_84_136" x1="478" y1="0" x2="478" y2="466" gradientUnits="userSpaceOnUse">
<stop stop-color="#2AC3D1"/>
<stop offset="0.369792" stop-color="#0047FF"/>
</linearGradient>
<clipPath id="clip0_84_136">
<rect width="469" height="474" fill="white"/>
</clipPath>
</defs>
</svg>
