<svg width="1181" height="259" viewBox="0 0 1181 259" fill="none" xmlns="http://www.w3.org/2000/svg">
<g filter="url(#filter0_i_151_52)">
<rect x="1020" y="118" width="37" height="23" rx="11.5" fill="#0047FF"/>
</g>
<rect width="255.527" height="30.6444" rx="15.3222" fill="#0047FF"/>
<rect width="255.527" height="30.6444" rx="15.3222" fill="#0047FF"/>
<rect width="255.527" height="30.6444" rx="15.3222" fill="#0047FF"/>
<rect width="255.527" height="30.6444" rx="15.3222" fill="#0047FF"/>
<rect x="29.6741" width="256.75" height="29.6741" rx="14.837" transform="rotate(90 29.6741 0)" fill="#0047FF"/>
<rect x="29.6741" width="256.75" height="29.6741" rx="14.837" transform="rotate(90 29.6741 0)" fill="#0047FF"/>
<rect x="29.6741" width="256.75" height="29.6741" rx="14.837" transform="rotate(90 29.6741 0)" fill="#0047FF"/>
<rect x="29.6741" width="256.75" height="29.6741" rx="14.837" transform="rotate(90 29.6741 0)" fill="#0047FF"/>
<path d="M242.506 -6.51652e-07C250.7 -2.91755e-07 257.343 6.64277 257.343 14.837L257.343 148.021L227.669 148.021L227.669 14.837C227.669 6.64278 234.312 -1.01155e-06 242.506 -6.51652e-07V-6.51652e-07Z" fill="#0047FF"/>
<path d="M242.506 -6.51652e-07C250.7 -2.91755e-07 257.343 6.64277 257.343 14.837L257.343 148.021L227.669 148.021L227.669 14.837C227.669 6.64278 234.312 -1.01155e-06 242.506 -6.51652e-07V-6.51652e-07Z" fill="#0047FF"/>
<path d="M242.506 -6.51652e-07C250.7 -2.91755e-07 257.343 6.64277 257.343 14.837L257.343 148.021L227.669 148.021L227.669 14.837C227.669 6.64278 234.312 -1.01155e-06 242.506 -6.51652e-07V-6.51652e-07Z" fill="#0047FF"/>
<path d="M242.506 -6.51652e-07C250.7 -2.91755e-07 257.343 6.64277 257.343 14.837L257.343 148.021L227.669 148.021L227.669 14.837C227.669 6.64278 234.312 -1.01155e-06 242.506 -6.51652e-07V-6.51652e-07Z" fill="#0047FF"/>
<rect y="227.762" width="153.316" height="30.6444" rx="15.3222" fill="#0047FF"/>
<rect y="227.762" width="153.316" height="30.6444" rx="15.3222" fill="#0047FF"/>
<rect y="227.762" width="153.316" height="30.6444" rx="15.3222" fill="#0047FF"/>
<rect y="227.762" width="153.316" height="30.6444" rx="15.3222" fill="#0047FF"/>
<rect x="175.674" y="227.629" width="81.6038" height="30.6444" fill="#00EAFF"/>
<rect x="175.674" y="227.629" width="81.6038" height="30.6444" fill="#00EAFF"/>
<rect x="175.674" y="227.629" width="81.6038" height="30.6444" fill="#00EAFF"/>
<rect x="175.674" y="227.629" width="81.6038" height="30.6444" fill="#00EAFF"/>
<rect x="175.674" y="227.629" width="81.6038" height="30.6444" fill="#00EAFF"/>
<rect x="175.674" y="227.629" width="81.6038" height="30.6444" fill="#00EAFF"/>
<rect x="175.674" y="227.629" width="81.6038" height="30.6444" fill="#00EAFF"/>
<rect x="175.674" y="227.629" width="81.6038" height="30.6444" fill="#00EAFF"/>
<rect x="257.277" y="176.279" width="81.9943" height="30.4984" transform="rotate(90 257.277 176.279)" fill="#00EAFF"/>
<rect x="257.277" y="176.279" width="81.9943" height="30.4984" transform="rotate(90 257.277 176.279)" fill="#00EAFF"/>
<rect x="257.277" y="176.279" width="81.9943" height="30.4984" transform="rotate(90 257.277 176.279)" fill="#00EAFF"/>
<rect x="257.277" y="176.279" width="81.9943" height="30.4984" transform="rotate(90 257.277 176.279)" fill="#00EAFF"/>
<path d="M76.8 197C75.3333 197 74.1333 196.133 73.2 194.4C72.2667 192.667 71.5333 190.667 71 188.4C70.6 186 70.4 184 70.4 182.4C70.4 181.6 70.5333 180.867 70.8 180.2C71.0667 179.4 71.4 178.733 71.8 178.2L153.2 79.4H92C90.2667 79.4 88.9333 78.6667 88 77.2C87.2 75.6 87 73 87.4 69.4L87.6 66.8C88 63.0667 88.7333 60.5333 89.8 59.2C91 57.7333 92.5333 57 94.4 57H184.6C185.933 57 187 57.8667 187.8 59.6C188.733 61.3333 189.4 63.4 189.8 65.8C190.2 68.0667 190.4 70.0667 190.4 71.8C190.4 73.2667 190 74.4667 189.2 75.4L107.4 174.6H174.2C176.2 174.6 177.6 175.333 178.4 176.8C179.2 178.267 179.4 180.8 179 184.4L178.8 186.8C178.4 190.667 177.6 193.333 176.4 194.8C175.333 196.267 173.8 197 171.8 197H76.8Z" fill="#0047FF"/>
<path d="M73.2 194.4C74.1333 196.133 75.3333 197 76.8 197H171.8C173.8 197 175.333 196.267 176.4 194.8C177.6 193.333 178.4 190.667 178.8 186.8L179 184.4C179.4 180.8 179.2 178.267 178.4 176.8C177.6 175.333 176.2 174.6 174.2 174.6H77.4C72 176.5 71.0666 179.4 70.8 180.2C70.5333 180.867 70.4 181.6 70.4 182.4C70.4 184 70.6 186 71 188.4C71.5333 190.667 72.2666 192.667 73.2 194.4Z" fill="#0033B5"/>
<path d="M1066.8 202C1065.33 202 1064.13 201.133 1063.2 199.4C1062.27 197.667 1061.53 195.667 1061 193.4C1060.6 191 1060.4 189 1060.4 187.4C1060.4 186.6 1060.53 185.867 1060.8 185.2C1061.07 184.4 1061.4 183.733 1061.8 183.2L1143.2 84.4H1082C1080.27 84.4 1078.93 83.6667 1078 82.2C1077.2 80.6 1077 78 1077.4 74.4L1077.6 71.8C1078 68.0667 1078.73 65.5333 1079.8 64.2C1081 62.7333 1082.53 62 1084.4 62H1174.6C1175.93 62 1177 62.8667 1177.8 64.6C1178.73 66.3333 1179.4 68.4 1179.8 70.8C1180.2 73.0667 1180.4 75.0667 1180.4 76.8C1180.4 78.2667 1180 79.4667 1179.2 80.4L1097.4 179.6H1164.2C1166.2 179.6 1167.6 180.333 1168.4 181.8C1169.2 183.267 1169.4 185.8 1169 189.4L1168.8 191.8C1168.4 195.667 1167.6 198.333 1166.4 199.8C1165.33 201.267 1163.8 202 1161.8 202H1066.8Z" fill="#0047FF"/>
<path d="M1063.2 199.4C1064.13 201.133 1065.33 202 1066.8 202H1161.8C1163.8 202 1165.33 201.267 1166.4 199.8C1167.6 198.333 1168.4 195.667 1168.8 191.8L1169 189.4C1169.4 185.8 1169.2 183.267 1168.4 181.8C1167.6 180.333 1166.2 179.6 1164.2 179.6H1067.4C1062 181.5 1061.07 184.4 1060.8 185.2C1060.53 185.867 1060.4 186.6 1060.4 187.4C1060.4 189 1060.6 191 1061 193.4C1061.53 195.667 1062.27 197.667 1063.2 199.4Z" fill="#0033B5"/>
<g filter="url(#filter1_i_151_52)">
<path d="M399.082 160.207C399.082 157.993 398.757 156.008 398.105 154.25C397.454 152.427 396.25 150.734 394.492 149.172C392.734 147.609 390.195 146.047 386.875 144.484C383.62 142.857 379.323 141.164 373.984 139.406C367.734 137.323 361.712 134.979 355.918 132.375C350.124 129.706 344.948 126.613 340.391 123.098C335.833 119.517 332.22 115.35 329.551 110.598C326.882 105.78 325.547 100.181 325.547 93.8008C325.547 87.681 326.914 82.1797 329.648 77.2969C332.383 72.349 336.191 68.1497 341.074 64.6992C346.022 61.1836 351.816 58.5143 358.457 56.6914C365.098 54.8034 372.357 53.8594 380.234 53.8594C390.651 53.8594 399.831 55.6823 407.773 59.3281C415.781 62.9089 422.031 68.0195 426.523 74.6602C431.081 81.2357 433.359 89.0156 433.359 98H399.277C399.277 94.4193 398.529 91.2617 397.031 88.5273C395.599 85.793 393.418 83.6445 390.488 82.082C387.559 80.5195 383.88 79.7383 379.453 79.7383C375.156 79.7383 371.543 80.3893 368.613 81.6914C365.684 82.9935 363.47 84.7513 361.973 86.9648C360.475 89.1133 359.727 91.4896 359.727 94.0938C359.727 96.2422 360.312 98.1953 361.484 99.9531C362.721 101.646 364.447 103.241 366.66 104.738C368.939 106.236 371.673 107.668 374.863 109.035C378.118 110.402 381.764 111.737 385.801 113.039C393.353 115.448 400.059 118.15 405.918 121.145C411.842 124.074 416.823 127.427 420.859 131.203C424.961 134.914 428.053 139.146 430.137 143.898C432.285 148.651 433.359 154.022 433.359 160.012C433.359 166.392 432.122 172.056 429.648 177.004C427.174 181.952 423.626 186.151 419.004 189.602C414.382 192.987 408.848 195.559 402.402 197.316C395.957 199.074 388.763 199.953 380.82 199.953C373.529 199.953 366.335 199.042 359.238 197.219C352.207 195.331 345.827 192.466 340.098 188.625C334.368 184.719 329.779 179.738 326.328 173.684C322.943 167.564 321.25 160.305 321.25 151.906H355.625C355.625 156.073 356.178 159.589 357.285 162.453C358.392 165.318 360.02 167.629 362.168 169.387C364.316 171.079 366.953 172.316 370.078 173.098C373.203 173.814 376.784 174.172 380.82 174.172C385.182 174.172 388.698 173.553 391.367 172.316C394.036 171.014 395.99 169.322 397.227 167.238C398.464 165.09 399.082 162.746 399.082 160.207ZM513.883 55.8125V198H479.605V55.8125H513.883ZM556.656 55.8125V82.2773H437.809V55.8125H556.656ZM613.547 85.6953L578.879 198H542.062L594.309 55.8125H617.648L613.547 85.6953ZM642.258 198L607.492 85.6953L603 55.8125H626.633L679.172 198H642.258ZM640.891 144.973V171.438H567.941V144.973H640.891ZM741.629 137.551H705.008L704.812 115.09H734.5C739.839 115.09 744.103 114.504 747.293 113.332C750.483 112.095 752.794 110.305 754.227 107.961C755.724 105.617 756.473 102.688 756.473 99.1719C756.473 95.1354 755.724 91.8802 754.227 89.4062C752.729 86.9323 750.353 85.1419 747.098 84.0352C743.908 82.8633 739.773 82.2773 734.695 82.2773H717.898V198H683.621V55.8125H734.695C743.484 55.8125 751.329 56.6263 758.23 58.2539C765.132 59.8164 770.991 62.2253 775.809 65.4805C780.691 68.7357 784.402 72.8372 786.941 77.7852C789.48 82.668 790.75 88.4297 790.75 95.0703C790.75 100.865 789.513 106.301 787.039 111.379C784.565 116.457 780.431 120.591 774.637 123.781C768.908 126.906 761.062 128.534 751.102 128.664L741.629 137.551ZM740.262 198H696.707L708.426 171.633H740.262C744.949 171.633 748.693 170.917 751.492 169.484C754.357 167.987 756.408 166.034 757.645 163.625C758.947 161.151 759.598 158.417 759.598 155.422C759.598 151.776 758.979 148.618 757.742 145.949C756.57 143.28 754.682 141.229 752.078 139.797C749.474 138.299 745.991 137.551 741.629 137.551H712.82L713.016 115.09H747.488L755.496 124.074C765.001 123.684 772.521 125.018 778.055 128.078C783.654 131.138 787.658 135.174 790.066 140.188C792.475 145.201 793.68 150.441 793.68 155.91C793.68 165.22 791.661 173 787.625 179.25C783.654 185.5 777.697 190.188 769.754 193.312C761.811 196.438 751.98 198 740.262 198ZM900.668 171.633V198H828.793V171.633H900.668ZM841 55.8125V198H806.723V55.8125H841ZM1006.97 171.633V198H931.191V171.633H1006.97ZM943.398 55.8125V198H909.121V55.8125H943.398ZM997.207 112.258V137.746H931.191V112.258H997.207ZM1007.27 55.8125V82.2773H931.191V55.8125H1007.27Z" fill="#0047FF"/>
</g>
<rect x="71.9916" y="227.75" width="81.6038" height="30.6444" fill="#0047FF"/>
<defs>
<filter id="filter0_i_151_52" x="1020" y="118" width="37" height="23" filterUnits="userSpaceOnUse" color-interpolation-filters="sRGB">
<feFlood flood-opacity="0" result="BackgroundImageFix"/>
<feBlend mode="normal" in="SourceGraphic" in2="BackgroundImageFix" result="shape"/>
<feColorMatrix in="SourceAlpha" type="matrix" values="0 0 0 0 0 0 0 0 0 0 0 0 0 0 0 0 0 0 127 0" result="hardAlpha"/>
<feOffset/>
<feGaussianBlur stdDeviation="0.5"/>
<feComposite in2="hardAlpha" operator="arithmetic" k2="-1" k3="1"/>
<feColorMatrix type="matrix" values="0 0 0 0 0 0 0 0 0 0.78256 0 0 0 0 0.854167 0 0 0 1 0"/>
<feBlend mode="normal" in2="shape" result="effect1_innerShadow_151_52"/>
</filter>
<filter id="filter1_i_151_52" x="321.25" y="53.8594" width="686.016" height="147.094" filterUnits="userSpaceOnUse" color-interpolation-filters="sRGB">
<feFlood flood-opacity="0" result="BackgroundImageFix"/>
<feBlend mode="normal" in="SourceGraphic" in2="BackgroundImageFix" result="shape"/>
<feColorMatrix in="SourceAlpha" type="matrix" values="0 0 0 0 0 0 0 0 0 0 0 0 0 0 0 0 0 0 127 0" result="hardAlpha"/>
<feOffset dy="1"/>
<feGaussianBlur stdDeviation="2"/>
<feComposite in2="hardAlpha" operator="arithmetic" k2="-1" k3="1"/>
<feColorMatrix type="matrix" values="0 0 0 0 0 0 0 0 0 0 0 0 0 0 0 0 0 0 0.25 0"/>
<feBlend mode="normal" in2="shape" result="effect1_innerShadow_151_52"/>
</filter>
</defs>
</svg>
