<svg width="205" height="55" viewBox="0 0 205 55" fill="none" xmlns="http://www.w3.org/2000/svg">
<g filter="url(#filter0_d_84_123)">
<path d="M24.8453 17.2172H19.026L24.2328 25.9571L18.4747 34.9432H23.6815C26.3686 30.558 28.1034 28.3517 31.6447 24.9108L36.3001 17.2172H30.6033L27.6018 22.5104L24.8453 17.2172Z" fill="#0047FF"/>
<path d="M24.8453 17.2172H19.026L24.2328 25.9571L18.4747 34.9432H23.6815C26.3686 30.558 28.1034 28.3517 31.6447 24.9108L36.3001 17.2172H30.6033L27.6018 22.5104L24.8453 17.2172Z" fill="#0047FF"/>
<path d="M31.6447 26.8802C30.1126 28.3253 29.4596 29.2451 28.6432 31.0656L30.7871 34.9431H36.6064L31.6447 26.8802Z" fill="#0033B5"/>
<rect x="8" y="7" width="37.9785" height="4.55461" rx="2.2773" fill="#0047FF"/>
<rect x="8" y="7" width="37.9785" height="4.55461" rx="2.2773" fill="#0047FF"/>
<rect x="8" y="7" width="37.9785" height="4.55461" rx="2.2773" fill="#0047FF"/>
<rect x="8" y="7" width="37.9785" height="4.55461" rx="2.2773" fill="#0047FF"/>
<rect x="12.4104" y="7" width="38.1602" height="4.4104" rx="2.2052" transform="rotate(90 12.4104 7)" fill="#0047FF"/>
<rect x="12.4104" y="7" width="38.1602" height="4.4104" rx="2.2052" transform="rotate(90 12.4104 7)" fill="#0047FF"/>
<rect x="12.4104" y="7" width="38.1602" height="4.4104" rx="2.2052" transform="rotate(90 12.4104 7)" fill="#0047FF"/>
<rect x="12.4104" y="7" width="38.1602" height="4.4104" rx="2.2052" transform="rotate(90 12.4104 7)" fill="#0047FF"/>
<path d="M44.0433 7C45.2612 7 46.2485 7.9873 46.2485 9.2052L46.2485 29L41.8381 29L41.8381 9.2052C41.8381 7.9873 42.8254 7 44.0433 7V7Z" fill="#0047FF"/>
<path d="M44.0433 7C45.2612 7 46.2485 7.9873 46.2485 9.2052L46.2485 29L41.8381 29L41.8381 9.2052C41.8381 7.9873 42.8254 7 44.0433 7V7Z" fill="#0047FF"/>
<path d="M44.0433 7C45.2612 7 46.2485 7.9873 46.2485 9.2052L46.2485 29L41.8381 29L41.8381 9.2052C41.8381 7.9873 42.8254 7 44.0433 7V7Z" fill="#0047FF"/>
<path d="M44.0433 7C45.2612 7 46.2485 7.9873 46.2485 9.2052L46.2485 29L41.8381 29L41.8381 9.2052C41.8381 7.9873 42.8254 7 44.0433 7V7Z" fill="#0047FF"/>
<rect x="8" y="40.8518" width="22.7871" height="4.55461" rx="2.2773" fill="#0047FF"/>
<rect x="8" y="40.8518" width="22.7871" height="4.55461" rx="2.2773" fill="#0047FF"/>
<rect x="8" y="40.8518" width="22.7871" height="4.55461" rx="2.2773" fill="#0047FF"/>
<rect x="8" y="40.8518" width="22.7871" height="4.55461" rx="2.2773" fill="#0047FF"/>
<rect x="34.11" y="40.832" width="12.1286" height="4.55461" fill="#00EAFF"/>
<rect x="34.11" y="40.832" width="12.1286" height="4.55461" fill="#00EAFF"/>
<rect x="34.11" y="40.832" width="12.1286" height="4.55461" fill="#00EAFF"/>
<rect x="34.11" y="40.832" width="12.1286" height="4.55461" fill="#00EAFF"/>
<rect x="34.11" y="40.832" width="12.1286" height="4.55461" fill="#00EAFF"/>
<rect x="34.11" y="40.832" width="12.1286" height="4.55461" fill="#00EAFF"/>
<rect x="34.11" y="40.832" width="12.1286" height="4.55461" fill="#00EAFF"/>
<rect x="34.11" y="40.832" width="12.1286" height="4.55461" fill="#00EAFF"/>
<rect x="46.2386" y="33.2" width="12.1867" height="4.53291" transform="rotate(90 46.2386 33.2)" fill="#00EAFF"/>
<rect x="46.2386" y="33.2" width="12.1867" height="4.53291" transform="rotate(90 46.2386 33.2)" fill="#00EAFF"/>
<rect x="46.2386" y="33.2" width="12.1867" height="4.53291" transform="rotate(90 46.2386 33.2)" fill="#00EAFF"/>
<rect x="46.2386" y="33.2" width="12.1867" height="4.53291" transform="rotate(90 46.2386 33.2)" fill="#00EAFF"/>
<rect x="18.7" y="40.85" width="12.1286" height="4.55461" fill="#0047FF"/>
<path d="M182.332 14.2172H175.2L181.581 24.8767L174.525 35.8366H180.906C184.199 30.4882 186.325 27.7973 190.664 23.6006L196.369 14.2172H189.388L185.71 20.673L182.332 14.2172Z" fill="#0047FF"/>
<path d="M182.332 14.2172H175.2L181.581 24.8767L174.525 35.8366H180.906C184.199 30.4882 186.325 27.7973 190.664 23.6006L196.369 14.2172H189.388L185.71 20.673L182.332 14.2172Z" fill="#0047FF"/>
<path d="M190.664 26.0027C188.787 27.7651 187.987 28.8869 186.986 31.1073L189.613 35.8365H196.745L190.664 26.0027Z" fill="#0033B5"/>
<g filter="url(#filter1_i_84_123)">
<path d="M72.0327 30.1421C72.0327 29.799 71.9823 29.4912 71.8813 29.2188C71.7804 28.9362 71.5938 28.6738 71.3213 28.4316C71.0488 28.1895 70.6553 27.9473 70.1406 27.7051C69.6361 27.4528 68.9701 27.1904 68.1426 26.918C67.1738 26.5951 66.2404 26.2318 65.3423 25.8281C64.4442 25.4144 63.6419 24.9351 62.9355 24.3901C62.2292 23.8351 61.6691 23.1893 61.2554 22.4526C60.8416 21.7059 60.6348 20.8381 60.6348 19.8491C60.6348 18.9006 60.8467 18.0479 61.2705 17.291C61.6943 16.5241 62.2847 15.8732 63.0415 15.3384C63.8084 14.7935 64.7065 14.3797 65.7358 14.0972C66.7651 13.8045 67.8903 13.6582 69.1113 13.6582C70.7259 13.6582 72.1488 13.9408 73.3799 14.5059C74.6211 15.0609 75.5898 15.853 76.2861 16.8823C76.9925 17.9015 77.3457 19.1074 77.3457 20.5H72.063C72.063 19.945 71.9469 19.4556 71.7148 19.0317C71.4928 18.6079 71.1548 18.2749 70.7007 18.0327C70.2466 17.7905 69.6764 17.6694 68.9902 17.6694C68.3242 17.6694 67.7642 17.7703 67.3101 17.9722C66.856 18.174 66.5129 18.4465 66.2808 18.7896C66.0487 19.1226 65.9326 19.4909 65.9326 19.8945C65.9326 20.2275 66.0234 20.5303 66.2051 20.8027C66.3968 21.0651 66.6642 21.3123 67.0073 21.5444C67.3605 21.7765 67.7843 21.9985 68.2788 22.2104C68.7834 22.4224 69.3485 22.6292 69.9741 22.8311C71.1447 23.2044 72.1841 23.6232 73.0923 24.0874C74.0106 24.5415 74.7826 25.0612 75.4082 25.6465C76.0439 26.2217 76.5233 26.8776 76.8462 27.6143C77.1792 28.3509 77.3457 29.1834 77.3457 30.1118C77.3457 31.1007 77.154 31.9787 76.7705 32.7456C76.387 33.5125 75.8371 34.1634 75.1206 34.6982C74.4041 35.223 73.5464 35.6216 72.5474 35.894C71.5483 36.1665 70.4333 36.3027 69.2021 36.3027C68.0719 36.3027 66.9569 36.1615 65.8569 35.8789C64.7671 35.5863 63.7782 35.1423 62.8901 34.5469C62.0021 33.9414 61.2907 33.1694 60.7559 32.231C60.2311 31.2824 59.9688 30.1572 59.9688 28.8555H65.2969C65.2969 29.5013 65.3826 30.0462 65.5542 30.4902C65.7257 30.9342 65.978 31.2925 66.311 31.5649C66.644 31.8273 67.0527 32.019 67.5371 32.1401C68.0215 32.2511 68.5765 32.3066 69.2021 32.3066C69.8783 32.3066 70.4232 32.2108 70.8369 32.019C71.2507 31.8172 71.5534 31.5549 71.7451 31.2319C71.9368 30.8989 72.0327 30.5356 72.0327 30.1421ZM89.8268 13.9609V36H84.5138V13.9609H89.8268ZM96.4567 13.9609V18.063H78.0353V13.9609H96.4567ZM105.275 18.5928L99.9012 36H94.1947L102.293 13.9609H105.911L105.275 18.5928ZM109.725 36L104.336 18.5928L103.64 13.9609H107.303L115.447 36H109.725ZM109.513 27.7808V31.8828H98.2059V27.7808H109.513ZM125.127 26.6304H119.451L119.421 23.1489H124.022C124.85 23.1489 125.511 23.0581 126.005 22.8765C126.5 22.6847 126.858 22.4072 127.08 22.0439C127.312 21.6807 127.428 21.2266 127.428 20.6816C127.428 20.056 127.312 19.5514 127.08 19.168C126.848 18.7845 126.48 18.507 125.975 18.3354C125.481 18.1538 124.84 18.063 124.053 18.063H121.449V36H116.136V13.9609H124.053C125.415 13.9609 126.631 14.0871 127.701 14.3394C128.77 14.5815 129.679 14.9549 130.425 15.4595C131.182 15.964 131.757 16.5998 132.151 17.3667C132.544 18.1235 132.741 19.0166 132.741 20.0459C132.741 20.944 132.55 21.7866 132.166 22.5737C131.783 23.3608 131.142 24.0016 130.244 24.4961C129.356 24.9805 128.14 25.2327 126.596 25.2529L125.127 26.6304ZM124.916 36H118.165L119.981 31.9131H124.916C125.642 31.9131 126.222 31.8021 126.656 31.5801C127.1 31.348 127.418 31.0452 127.61 30.6719C127.812 30.2884 127.913 29.8646 127.913 29.4004C127.913 28.8353 127.817 28.3459 127.625 27.9321C127.443 27.5184 127.151 27.2005 126.747 26.9785C126.343 26.7464 125.804 26.6304 125.127 26.6304H120.662L120.692 23.1489H126.036L127.277 24.5415C128.75 24.481 129.916 24.6878 130.773 25.1621C131.641 25.6364 132.262 26.262 132.635 27.0391C133.009 27.8161 133.195 28.6284 133.195 29.4761C133.195 30.9191 132.883 32.125 132.257 33.0938C131.641 34.0625 130.718 34.7891 129.487 35.2734C128.256 35.7578 126.732 36 124.916 36ZM149.779 31.9131V36H138.638V31.9131H149.779ZM140.53 13.9609V36H135.217V13.9609H140.53ZM166.256 31.9131V36H154.51V31.9131H166.256ZM156.402 13.9609V36H151.089V13.9609H156.402ZM164.742 22.71V26.6606H154.51V22.71H164.742ZM166.301 13.9609V18.063H154.51V13.9609H166.301Z" fill="#0047FF"/>
</g>
<g filter="url(#filter2_i_84_123)">
<rect x="170" y="23" width="5" height="3" rx="1.5" fill="#0047FF"/>
</g>
</g>
<defs>
<filter id="filter0_d_84_123" x="0" y="0" width="204.745" height="54.4064" filterUnits="userSpaceOnUse" color-interpolation-filters="sRGB">
<feFlood flood-opacity="0" result="BackgroundImageFix"/>
<feColorMatrix in="SourceAlpha" type="matrix" values="0 0 0 0 0 0 0 0 0 0 0 0 0 0 0 0 0 0 127 0" result="hardAlpha"/>
<feOffset dy="1"/>
<feGaussianBlur stdDeviation="4"/>
<feComposite in2="hardAlpha" operator="out"/>
<feColorMatrix type="matrix" values="0 0 0 0 1 0 0 0 0 1 0 0 0 0 1 0 0 0 1 0"/>
<feBlend mode="normal" in2="BackgroundImageFix" result="effect1_dropShadow_84_123"/>
<feBlend mode="normal" in="SourceGraphic" in2="effect1_dropShadow_84_123" result="shape"/>
</filter>
<filter id="filter1_i_84_123" x="59.9688" y="13.6582" width="106.332" height="23.6445" filterUnits="userSpaceOnUse" color-interpolation-filters="sRGB">
<feFlood flood-opacity="0" result="BackgroundImageFix"/>
<feBlend mode="normal" in="SourceGraphic" in2="BackgroundImageFix" result="shape"/>
<feColorMatrix in="SourceAlpha" type="matrix" values="0 0 0 0 0 0 0 0 0 0 0 0 0 0 0 0 0 0 127 0" result="hardAlpha"/>
<feOffset dy="1"/>
<feGaussianBlur stdDeviation="2"/>
<feComposite in2="hardAlpha" operator="arithmetic" k2="-1" k3="1"/>
<feColorMatrix type="matrix" values="0 0 0 0 0 0 0 0 0 0 0 0 0 0 0 0 0 0 0.25 0"/>
<feBlend mode="normal" in2="shape" result="effect1_innerShadow_84_123"/>
</filter>
<filter id="filter2_i_84_123" x="170" y="23" width="5" height="3" filterUnits="userSpaceOnUse" color-interpolation-filters="sRGB">
<feFlood flood-opacity="0" result="BackgroundImageFix"/>
<feBlend mode="normal" in="SourceGraphic" in2="BackgroundImageFix" result="shape"/>
<feColorMatrix in="SourceAlpha" type="matrix" values="0 0 0 0 0 0 0 0 0 0 0 0 0 0 0 0 0 0 127 0" result="hardAlpha"/>
<feOffset/>
<feGaussianBlur stdDeviation="0.5"/>
<feComposite in2="hardAlpha" operator="arithmetic" k2="-1" k3="1"/>
<feColorMatrix type="matrix" values="0 0 0 0 0 0 0 0 0 0.78256 0 0 0 0 0.854167 0 0 0 1 0"/>
<feBlend mode="normal" in2="shape" result="effect1_innerShadow_84_123"/>
</filter>
</defs>
</svg>
