<svg width="1202" height="259" viewBox="0 0 1202 259" fill="none" xmlns="http://www.w3.org/2000/svg">
<g filter="url(#filter0_i_151_52)">
<rect x="1050" y="118" width="37" height="23" rx="11.5" fill="#0047FF"/>
</g>
<rect x="15" y="15" width="241" height="242" fill="white"/>
<rect width="255.527" height="30.6444" rx="15.3222" fill="#0047FF"/>
<rect width="255.527" height="30.6444" rx="15.3222" fill="#0047FF"/>
<rect width="255.527" height="30.6444" rx="15.3222" fill="#0047FF"/>
<rect width="255.527" height="30.6444" rx="15.3222" fill="#0047FF"/>
<rect x="29.6741" width="256.75" height="29.6741" rx="14.837" transform="rotate(90 29.6741 0)" fill="#0047FF"/>
<rect x="29.6741" width="256.75" height="29.6741" rx="14.837" transform="rotate(90 29.6741 0)" fill="#0047FF"/>
<rect x="29.6741" width="256.75" height="29.6741" rx="14.837" transform="rotate(90 29.6741 0)" fill="#0047FF"/>
<rect x="29.6741" width="256.75" height="29.6741" rx="14.837" transform="rotate(90 29.6741 0)" fill="#0047FF"/>
<path d="M242.506 -6.51652e-07C250.7 -2.91755e-07 257.343 6.64277 257.343 14.837L257.343 148.021L227.669 148.021L227.669 14.837C227.669 6.64278 234.312 -1.01155e-06 242.506 -6.51652e-07Z" fill="#0047FF"/>
<path d="M242.506 -6.51652e-07C250.7 -2.91755e-07 257.343 6.64277 257.343 14.837L257.343 148.021L227.669 148.021L227.669 14.837C227.669 6.64278 234.312 -1.01155e-06 242.506 -6.51652e-07Z" fill="#0047FF"/>
<path d="M242.506 -6.51652e-07C250.7 -2.91755e-07 257.343 6.64277 257.343 14.837L257.343 148.021L227.669 148.021L227.669 14.837C227.669 6.64278 234.312 -1.01155e-06 242.506 -6.51652e-07Z" fill="#0047FF"/>
<path d="M242.506 -6.51652e-07C250.7 -2.91755e-07 257.343 6.64277 257.343 14.837L257.343 148.021L227.669 148.021L227.669 14.837C227.669 6.64278 234.312 -1.01155e-06 242.506 -6.51652e-07Z" fill="#0047FF"/>
<rect y="227.762" width="153.316" height="30.6444" rx="15.3222" fill="#0047FF"/>
<rect y="227.762" width="153.316" height="30.6444" rx="15.3222" fill="#0047FF"/>
<rect y="227.762" width="153.316" height="30.6444" rx="15.3222" fill="#0047FF"/>
<rect y="227.762" width="153.316" height="30.6444" rx="15.3222" fill="#0047FF"/>
<rect x="175.674" y="227.629" width="81.6038" height="30.6444" fill="#00EAFF"/>
<rect x="175.674" y="227.629" width="81.6038" height="30.6444" fill="#00EAFF"/>
<rect x="175.674" y="227.629" width="81.6038" height="30.6444" fill="#00EAFF"/>
<rect x="175.674" y="227.629" width="81.6038" height="30.6444" fill="#00EAFF"/>
<rect x="175.674" y="227.629" width="81.6038" height="30.6444" fill="#00EAFF"/>
<rect x="175.674" y="227.629" width="81.6038" height="30.6444" fill="#00EAFF"/>
<rect x="175.674" y="227.629" width="81.6038" height="30.6444" fill="#00EAFF"/>
<rect x="175.674" y="227.629" width="81.6038" height="30.6444" fill="#00EAFF"/>
<rect x="257.277" y="176.279" width="81.9943" height="30.4984" transform="rotate(90 257.277 176.279)" fill="#00EAFF"/>
<rect x="257.277" y="176.279" width="81.9943" height="30.4984" transform="rotate(90 257.277 176.279)" fill="#00EAFF"/>
<rect x="257.277" y="176.279" width="81.9943" height="30.4984" transform="rotate(90 257.277 176.279)" fill="#00EAFF"/>
<rect x="257.277" y="176.279" width="81.9943" height="30.4984" transform="rotate(90 257.277 176.279)" fill="#00EAFF"/>
<path d="M80.7067 191C79.3989 191 78.3289 190.232 77.4967 188.697C76.6644 187.162 76.0106 185.39 75.535 183.383C75.1783 181.257 75 179.486 75 178.069C75 177.36 75.1189 176.71 75.3567 176.12C75.5944 175.411 75.8917 174.821 76.2483 174.349L148.83 86.84H94.26C92.7144 86.84 91.5256 86.1905 90.6933 84.8914C89.98 83.4743 89.8017 81.1714 90.1583 77.9829L90.3367 75.68C90.6933 72.3733 91.3472 70.1295 92.2983 68.9486C93.3683 67.6495 94.7356 67 96.4 67H176.828C178.017 67 178.968 67.7676 179.682 69.3029C180.514 70.8381 181.108 72.6686 181.465 74.7943C181.822 76.8019 182 78.5733 182 80.1086C182 81.4076 181.643 82.4705 180.93 83.2971L107.992 171.16H167.555C169.338 171.16 170.587 171.81 171.3 173.109C172.013 174.408 172.192 176.651 171.835 179.84L171.657 181.966C171.3 185.39 170.587 187.752 169.517 189.051C168.566 190.35 167.198 191 165.415 191H80.7067Z" fill="#0047FF"/>
<path d="M77.4967 188.697C78.3289 190.232 79.3989 191 80.7067 191H165.415C167.198 191 168.566 190.35 169.517 189.051C170.587 187.752 171.3 185.39 171.657 181.966L171.835 179.84C172.192 176.651 172.013 174.408 171.3 173.109C170.587 171.81 169.338 171.16 167.555 171.16L81.2416 171.16C76.4267 172.843 75.5944 175.411 75.3567 176.12C75.1189 176.71 75 177.36 75 178.069C75 179.486 75.1783 181.257 75.535 183.383C76.0106 185.39 76.6644 187.162 77.4967 188.697Z" fill="#0033B5"/>
<path d="M1086.51 198C1085.02 198 1083.8 197.121 1082.85 195.363C1081.9 193.605 1081.15 191.576 1080.61 189.277C1080.2 186.843 1080 184.814 1080 183.191C1080 182.38 1080.14 181.636 1080.41 180.96C1080.68 180.149 1081.02 179.472 1081.42 178.931L1164.18 78.72H1101.96C1100.2 78.72 1098.84 77.9762 1097.89 76.4886C1097.08 74.8657 1096.88 72.2286 1097.28 68.5771L1097.49 65.94C1097.89 62.1533 1098.64 59.5838 1099.72 58.2314C1100.94 56.7438 1102.5 56 1104.4 56H1196.1C1197.46 56 1198.54 56.879 1199.36 58.6371C1200.31 60.3952 1200.98 62.4914 1201.39 64.9257C1201.8 67.2248 1202 69.2533 1202 71.0114C1202 72.4991 1201.59 73.7162 1200.78 74.6629L1117.62 175.28H1185.53C1187.56 175.28 1188.99 176.024 1189.8 177.511C1190.61 178.999 1190.82 181.569 1190.41 185.22L1190.21 187.654C1189.8 191.576 1188.99 194.281 1187.77 195.769C1186.68 197.256 1185.12 198 1183.09 198H1086.51Z" fill="#0047FF"/>
<path d="M1082.85 195.363C1083.8 197.121 1085.02 198 1086.51 198H1183.09C1185.12 198 1186.68 197.256 1187.77 195.769C1188.99 194.281 1189.8 191.576 1190.21 187.654L1190.41 185.22C1190.82 181.569 1190.61 178.999 1189.8 177.511C1188.99 176.024 1187.56 175.28 1185.53 175.28L1087.12 175.28C1081.63 177.207 1080.68 180.149 1080.41 180.96C1080.14 181.636 1080 182.38 1080 183.191C1080 184.814 1080.2 186.843 1080.61 189.277C1081.15 191.576 1081.9 193.605 1082.85 195.363Z" fill="#0033B5"/>
<g filter="url(#filter1_i_151_52)">
<path d="M429.082 160.207C429.082 157.993 428.757 156.008 428.105 154.25C427.454 152.427 426.25 150.734 424.492 149.172C422.734 147.609 420.195 146.047 416.875 144.484C413.62 142.857 409.323 141.164 403.984 139.406C397.734 137.323 391.712 134.979 385.918 132.375C380.124 129.706 374.948 126.613 370.391 123.098C365.833 119.517 362.22 115.35 359.551 110.598C356.882 105.78 355.547 100.181 355.547 93.8008C355.547 87.681 356.914 82.1797 359.648 77.2969C362.383 72.349 366.191 68.1497 371.074 64.6992C376.022 61.1836 381.816 58.5143 388.457 56.6914C395.098 54.8034 402.357 53.8594 410.234 53.8594C420.651 53.8594 429.831 55.6823 437.773 59.3281C445.781 62.9089 452.031 68.0195 456.523 74.6602C461.081 81.2357 463.359 89.0156 463.359 98H429.277C429.277 94.4193 428.529 91.2617 427.031 88.5273C425.599 85.793 423.418 83.6445 420.488 82.082C417.559 80.5195 413.88 79.7383 409.453 79.7383C405.156 79.7383 401.543 80.3893 398.613 81.6914C395.684 82.9935 393.47 84.7513 391.973 86.9648C390.475 89.1133 389.727 91.4896 389.727 94.0938C389.727 96.2422 390.312 98.1953 391.484 99.9531C392.721 101.646 394.447 103.241 396.66 104.738C398.939 106.236 401.673 107.668 404.863 109.035C408.118 110.402 411.764 111.737 415.801 113.039C423.353 115.448 430.059 118.15 435.918 121.145C441.842 124.074 446.823 127.427 450.859 131.203C454.961 134.914 458.053 139.146 460.137 143.898C462.285 148.651 463.359 154.022 463.359 160.012C463.359 166.392 462.122 172.056 459.648 177.004C457.174 181.952 453.626 186.151 449.004 189.602C444.382 192.987 438.848 195.559 432.402 197.316C425.957 199.074 418.763 199.953 410.82 199.953C403.529 199.953 396.335 199.042 389.238 197.219C382.207 195.331 375.827 192.466 370.098 188.625C364.368 184.719 359.779 179.738 356.328 173.684C352.943 167.564 351.25 160.305 351.25 151.906H385.625C385.625 156.073 386.178 159.589 387.285 162.453C388.392 165.318 390.02 167.629 392.168 169.387C394.316 171.079 396.953 172.316 400.078 173.098C403.203 173.814 406.784 174.172 410.82 174.172C415.182 174.172 418.698 173.553 421.367 172.316C424.036 171.014 425.99 169.322 427.227 167.238C428.464 165.09 429.082 162.746 429.082 160.207ZM543.883 55.8125V198H509.605V55.8125H543.883ZM586.656 55.8125V82.2773H467.809V55.8125H586.656ZM643.547 85.6953L608.879 198H572.062L624.309 55.8125H647.648L643.547 85.6953ZM672.258 198L637.492 85.6953L633 55.8125H656.633L709.172 198H672.258ZM670.891 144.973V171.438H597.941V144.973H670.891ZM771.629 137.551H735.008L734.812 115.09H764.5C769.839 115.09 774.103 114.504 777.293 113.332C780.483 112.095 782.794 110.305 784.227 107.961C785.724 105.617 786.473 102.688 786.473 99.1719C786.473 95.1354 785.724 91.8802 784.227 89.4062C782.729 86.9323 780.353 85.1419 777.098 84.0352C773.908 82.8633 769.773 82.2773 764.695 82.2773H747.898V198H713.621V55.8125H764.695C773.484 55.8125 781.329 56.6263 788.23 58.2539C795.132 59.8164 800.991 62.2253 805.809 65.4805C810.691 68.7357 814.402 72.8372 816.941 77.7852C819.48 82.668 820.75 88.4297 820.75 95.0703C820.75 100.865 819.513 106.301 817.039 111.379C814.565 116.457 810.431 120.591 804.637 123.781C798.908 126.906 791.062 128.534 781.102 128.664L771.629 137.551ZM770.262 198H726.707L738.426 171.633H770.262C774.949 171.633 778.693 170.917 781.492 169.484C784.357 167.987 786.408 166.034 787.645 163.625C788.947 161.151 789.598 158.417 789.598 155.422C789.598 151.776 788.979 148.618 787.742 145.949C786.57 143.28 784.682 141.229 782.078 139.797C779.474 138.299 775.991 137.551 771.629 137.551H742.82L743.016 115.09H777.488L785.496 124.074C795.001 123.684 802.521 125.018 808.055 128.078C813.654 131.138 817.658 135.174 820.066 140.188C822.475 145.201 823.68 150.441 823.68 155.91C823.68 165.22 821.661 173 817.625 179.25C813.654 185.5 807.697 190.188 799.754 193.312C791.811 196.438 781.98 198 770.262 198ZM930.668 171.633V198H858.793V171.633H930.668ZM871 55.8125V198H836.723V55.8125H871ZM1036.97 171.633V198H961.191V171.633H1036.97ZM973.398 55.8125V198H939.121V55.8125H973.398ZM1027.21 112.258V137.746H961.191V112.258H1027.21ZM1037.27 55.8125V82.2773H961.191V55.8125H1037.27Z" fill="#0047FF"/>
</g>
<rect x="71.9916" y="227.75" width="81.6038" height="30.6444" fill="#0047FF"/>
<defs>
<filter id="filter0_i_151_52" x="1050" y="118" width="37" height="23" filterUnits="userSpaceOnUse" color-interpolation-filters="sRGB">
<feFlood flood-opacity="0" result="BackgroundImageFix"/>
<feBlend mode="normal" in="SourceGraphic" in2="BackgroundImageFix" result="shape"/>
<feColorMatrix in="SourceAlpha" type="matrix" values="0 0 0 0 0 0 0 0 0 0 0 0 0 0 0 0 0 0 127 0" result="hardAlpha"/>
<feOffset/>
<feGaussianBlur stdDeviation="0.5"/>
<feComposite in2="hardAlpha" operator="arithmetic" k2="-1" k3="1"/>
<feColorMatrix type="matrix" values="0 0 0 0 0 0 0 0 0 0.78256 0 0 0 0 0.854167 0 0 0 1 0"/>
<feBlend mode="normal" in2="shape" result="effect1_innerShadow_151_52"/>
</filter>
<filter id="filter1_i_151_52" x="351.25" y="53.8594" width="686.016" height="147.094" filterUnits="userSpaceOnUse" color-interpolation-filters="sRGB">
<feFlood flood-opacity="0" result="BackgroundImageFix"/>
<feBlend mode="normal" in="SourceGraphic" in2="BackgroundImageFix" result="shape"/>
<feColorMatrix in="SourceAlpha" type="matrix" values="0 0 0 0 0 0 0 0 0 0 0 0 0 0 0 0 0 0 127 0" result="hardAlpha"/>
<feOffset dy="1"/>
<feGaussianBlur stdDeviation="2"/>
<feComposite in2="hardAlpha" operator="arithmetic" k2="-1" k3="1"/>
<feColorMatrix type="matrix" values="0 0 0 0 0 0 0 0 0 0 0 0 0 0 0 0 0 0 0.25 0"/>
<feBlend mode="normal" in2="shape" result="effect1_innerShadow_151_52"/>
</filter>
</defs>
</svg>
