<svg width="404" height="116" viewBox="0 0 404 116" fill="none" xmlns="http://www.w3.org/2000/svg">
<g filter="url(#filter0_d_53_45)">
<path d="M177.477 69.9766C177.477 68.4401 177.268 67.0599 176.852 65.8359C176.435 64.612 175.745 63.5182 174.781 62.5547C173.818 61.5651 172.503 60.6536 170.836 59.8203C169.195 58.987 167.164 58.1536 164.742 57.3203C162.346 56.513 160.185 55.6276 158.258 54.6641C156.357 53.7005 154.716 52.5938 153.336 51.3438C151.982 50.0938 150.94 48.6354 150.211 46.9688C149.508 45.3021 149.156 43.349 149.156 41.1094C149.156 38.8958 149.547 36.8906 150.328 35.0938C151.135 33.2708 152.255 31.7083 153.688 30.4062C155.12 29.1042 156.812 28.1016 158.766 27.3984C160.719 26.6953 162.88 26.3438 165.25 26.3438C168.635 26.3438 171.552 27.112 174 28.6484C176.474 30.1589 178.362 32.2031 179.664 34.7812C180.992 37.3333 181.656 40.1849 181.656 43.3359H177.242C177.242 40.862 176.773 38.6615 175.836 36.7344C174.924 34.8073 173.57 33.2969 171.773 32.2031C170.003 31.0833 167.841 30.5234 165.289 30.5234C162.711 30.5234 160.549 31.0052 158.805 31.9688C157.086 32.9062 155.797 34.1693 154.938 35.7578C154.078 37.3203 153.648 39.0521 153.648 40.9531C153.648 42.3073 153.857 43.5573 154.273 44.7031C154.716 45.849 155.419 46.9036 156.383 47.8672C157.372 48.8307 158.661 49.7422 160.25 50.6016C161.865 51.4349 163.831 52.2292 166.148 52.9844C168.727 53.7917 170.992 54.7031 172.945 55.7188C174.924 56.7344 176.578 57.9062 177.906 59.2344C179.26 60.5625 180.276 62.099 180.953 63.8438C181.656 65.5885 182.008 67.6068 182.008 69.8984C182.008 72.2161 181.604 74.2995 180.797 76.1484C179.99 77.9714 178.844 79.5339 177.359 80.8359C175.875 82.112 174.13 83.0885 172.125 83.7656C170.12 84.4427 167.906 84.7812 165.484 84.7812C163.375 84.7812 161.266 84.4688 159.156 83.8438C157.047 83.1927 155.12 82.1771 153.375 80.7969C151.63 79.3906 150.237 77.6068 149.195 75.4453C148.154 73.2839 147.633 70.7057 147.633 67.7109H152.125C152.125 70.0807 152.516 72.099 153.297 73.7656C154.078 75.4062 155.107 76.7344 156.383 77.75C157.685 78.7396 159.13 79.4688 160.719 79.9375C162.307 80.3802 163.909 80.6016 165.523 80.6016C167.971 80.6016 170.094 80.1589 171.891 79.2734C173.688 78.388 175.068 77.151 176.031 75.5625C176.995 73.9479 177.477 72.0859 177.477 69.9766ZM200.453 27.125V84H196.039V27.125H200.453ZM216.664 27.125V31.3047H179.906V27.125H216.664ZM230.773 30.5625L214.406 84H209.797L227.883 27.125H231.047L230.773 30.5625ZM245.5 84L229.094 30.5625L228.898 27.125H232.023L250.109 84H245.5ZM242.922 63.9219V68.1016H217.297V63.9219H242.922ZM267.266 56.6562H254.023L253.945 52.5547H265.391C267.682 52.5547 269.622 52.151 271.211 51.3438C272.826 50.5365 274.049 49.3385 274.883 47.75C275.742 46.1615 276.172 44.1953 276.172 41.8516C276.172 39.5078 275.755 37.5547 274.922 35.9922C274.115 34.4036 272.878 33.2318 271.211 32.4766C269.57 31.6953 267.5 31.3047 265 31.3047H255.117V84H250.664V27.125H265C267.422 27.125 269.596 27.4115 271.523 27.9844C273.477 28.5573 275.13 29.4557 276.484 30.6797C277.839 31.8776 278.867 33.4271 279.57 35.3281C280.299 37.2031 280.664 39.4297 280.664 42.0078C280.664 44.3255 280.208 46.4349 279.297 48.3359C278.385 50.2109 277.109 51.7474 275.469 52.9453C273.854 54.1432 271.927 54.8854 269.688 55.1719L267.266 56.6562ZM266.914 84H252.5L254.883 79.8203H266.953C269.219 79.8203 271.159 79.3516 272.773 78.4141C274.388 77.4505 275.625 76.0833 276.484 74.3125C277.37 72.5417 277.812 70.4453 277.812 68.0234C277.812 65.888 277.435 63.9609 276.68 62.2422C275.924 60.5234 274.753 59.1693 273.164 58.1797C271.602 57.1641 269.622 56.6562 267.227 56.6562H258.711L258.789 52.5547H270.703L271.562 54.0391C273.75 54.2995 275.638 55.0807 277.227 56.3828C278.841 57.6849 280.091 59.3385 280.977 61.3438C281.862 63.349 282.305 65.5495 282.305 67.9453C282.305 71.4349 281.654 74.3776 280.352 76.7734C279.049 79.1432 277.24 80.9401 274.922 82.1641C272.63 83.388 269.961 84 266.914 84ZM313.445 79.8203V84H288.836V79.8203H313.445ZM290.047 27.125V84H285.555V27.125H290.047ZM344.469 79.8203V84H317.906V79.8203H344.469ZM319.117 27.125V84H314.664V27.125H319.117ZM341.148 52.5938V56.7734H317.906V52.5938H341.148ZM344.273 27.125V31.3047H317.906V27.125H344.273ZM352.54 96.33C352.18 96.33 352 95.94 352 95.16C352 94.98 352 94.8 352 94.62C352 94.44 352.03 94.23 352.09 93.99C352.99 87.21 355.09 80.25 358.39 73.11C361.69 65.97 365.5 58.89 369.82 51.87C368.56 48.87 367.39 45.84 366.31 42.78C365.23 39.66 364.33 36.87 363.61 34.41C362.89 31.89 362.38 30.06 362.08 28.92C361.48 26.46 361.03 24.45 360.73 22.89C360.49 21.27 360.37 19.98 360.37 19.02C360.37 17.4 360.73 16.59 361.45 16.59C361.99 16.59 362.59 16.98 363.25 17.76C363.97 18.54 364.63 19.47 365.23 20.55C365.83 21.63 366.22 22.65 366.4 23.61C366.94 25.95 367.54 28.38 368.2 30.9C368.86 33.36 369.49 35.7 370.09 37.92C370.69 40.14 371.2 42.06 371.62 43.68C372.1 45.3 372.43 46.41 372.61 47.01C374.65 44.13 376.87 41.01 379.27 37.65C381.73 34.23 384.22 30.99 386.74 27.93C389.32 24.81 391.75 22.26 394.03 20.28C394.93 19.56 395.83 19.2 396.73 19.2C397.39 19.2 397.96 19.38 398.44 19.74C398.92 20.1 399.16 20.55 399.16 21.09C399.16 21.69 398.83 22.29 398.17 22.89C396.31 24.51 394.3 26.55 392.14 29.01C390.04 31.41 387.88 34.02 385.66 36.84C383.5 39.66 381.4 42.45 379.36 45.21C377.32 47.91 375.49 50.34 373.87 52.5C374.29 53.34 374.92 54.78 375.76 56.82C376.6 58.86 377.68 61.23 379 63.93C380.32 66.63 381.88 69.42 383.68 72.3C384.88 74.16 385.99 75.51 387.01 76.35C388.09 77.19 389.02 77.61 389.8 77.61C391.12 77.61 392.05 76.74 392.59 75C393.19 73.2 393.49 71.01 393.49 68.43C393.49 66.21 393.37 63.87 393.13 61.41C392.95 58.89 392.71 56.52 392.41 54.3C392.17 52.02 391.93 50.07 391.69 48.45C391.45 46.83 391.27 45.78 391.15 45.3C391.03 44.46 390.94 43.77 390.88 43.23C390.82 42.69 390.79 42.24 390.79 41.88C390.79 41.22 390.88 40.89 391.06 40.89C391.3 40.89 391.6 41.31 391.96 42.15C392.38 42.93 392.74 43.8 393.04 44.76C393.34 45.54 393.7 46.83 394.12 48.63C394.54 50.43 394.96 52.5 395.38 54.84C395.8 57.18 396.13 59.61 396.37 62.13C396.67 64.65 396.82 67.08 396.82 69.42C396.82 73.62 396.28 76.59 395.2 78.33C394.18 80.07 392.86 80.94 391.24 80.94C389.38 80.94 387.34 80.01 385.12 78.15C382.96 76.29 381.07 74.13 379.45 71.67C377.83 69.21 376.36 66.66 375.04 64.02C373.72 61.38 372.4 58.47 371.08 55.29C368.56 59.01 366.1 63.03 363.7 67.35C361.36 71.67 359.32 76.02 357.58 80.4C355.9 84.72 354.79 88.86 354.25 92.82C354.13 93.9 353.89 94.74 353.53 95.34C353.17 96 352.84 96.33 352.54 96.33Z" fill="url(#paint0_linear_53_45)"/>
</g>
<g filter="url(#filter1_d_53_45)">
<mask id="mask0_53_45" style="mask-type:luminance" maskUnits="userSpaceOnUse" x="4" y="0" width="107" height="107">
<path d="M110.235 0H4V106.235H110.235V0Z" fill="white"/>
</mask>
<g mask="url(#mask0_53_45)">
<path d="M90.775 29.9496C92.601 29.4602 94.2158 28.3838 95.3703 26.8863C96.5242 25.3887 97.1538 23.5531 97.1619 21.6625V21.64C97.1619 19.3677 96.2594 17.1884 94.6523 15.5817C93.0456 13.9749 90.8663 13.0723 88.5942 13.0723H88.5722C86.6816 13.0805 84.8464 13.7103 83.3492 14.8644C81.8521 16.0186 80.7755 17.6332 80.2865 19.4592C78.8868 24.5294 75.8623 29.0003 71.6777 32.1865C67.4925 35.3727 62.3781 37.0981 57.1183 37.0981C51.8585 37.0981 46.7439 35.3727 42.559 32.1865C38.374 29.0003 35.3498 24.5294 33.9501 19.4592C33.4605 17.6333 32.384 16.019 30.8866 14.8651C29.3892 13.7112 27.5539 13.0817 25.6634 13.0737H25.641C23.3687 13.0737 21.1894 13.9764 19.5827 15.5831C17.9759 17.1899 17.0732 19.3691 17.0732 21.6414V21.6639C17.0816 23.5543 17.7114 25.3896 18.8655 26.8869C20.0197 28.3841 21.6342 29.4603 23.4602 29.9496C28.5303 31.3493 33.0013 34.3735 36.1875 38.5585C39.3736 42.7434 41.099 47.858 41.099 53.1177C41.099 58.3775 39.3736 63.492 36.1875 67.6771C33.0013 71.8623 28.5303 74.8863 23.4602 76.286C21.6343 76.7755 20.0199 77.8515 18.8659 79.3487C17.7118 80.8459 17.0821 82.681 17.0737 84.5712V84.5936C17.0737 86.8662 17.9764 89.0451 19.5831 90.6522C21.1899 92.2588 23.3691 93.1614 25.6415 93.1614H25.6639C27.5544 93.1532 29.3896 92.5232 30.8869 91.3692C32.3841 90.2148 33.4603 88.6005 33.9496 86.7744C35.3493 81.7044 38.3736 77.2334 42.5585 74.0473C46.7435 70.8608 51.858 69.1356 57.1178 69.1356C62.3776 69.1356 67.492 70.8608 71.6772 74.0473C75.8618 77.2334 78.8863 81.7044 80.286 86.7744C80.775 88.6005 81.8516 90.2153 83.3488 91.3697C84.8459 92.5237 86.6816 93.1537 88.5722 93.1618H88.5947C90.8667 93.1618 93.0461 92.2588 94.6527 90.6522C96.2594 89.0455 97.1624 86.8662 97.1624 84.5941V84.5712C97.1543 82.6806 96.5242 80.8454 95.3703 79.3482C94.2158 77.851 92.6015 76.775 90.7754 76.2855C85.7054 74.8858 81.2344 71.8618 78.0484 67.6766C74.8618 63.4915 73.1366 58.377 73.1366 53.1173C73.1366 47.8575 74.8618 42.743 78.0484 38.558C81.2344 34.373 85.7054 31.3488 90.7754 29.9491L90.775 29.9496Z" fill="url(#paint1_linear_53_45)"/>
<path d="M15.2075 5.07148C15.4831 5.34559 15.8373 5.527 16.2207 5.59048C16.6042 5.65396 16.9979 5.59636 17.3472 5.4257C20.5336 3.88688 24.1188 3.37436 27.6087 3.95878C31.0987 4.5432 34.3214 6.19581 36.8326 8.68874C37.1788 9.03755 37.6466 9.23871 38.1379 9.24994C38.6292 9.26118 39.1058 9.08163 39.4675 8.74897C39.6473 8.5774 39.7909 8.37166 39.89 8.14378C39.9891 7.9159 40.0416 7.67053 40.0446 7.42205C40.0474 7.17357 40.0006 6.92705 39.9069 6.69693C39.8131 6.4668 39.6743 6.25776 39.4986 6.08204C36.4363 3.02725 32.4992 1.00123 28.2334 0.285045C23.9676 -0.431139 19.5847 0.198024 15.6927 2.08524C15.4277 2.21664 15.1978 2.40932 15.0222 2.64732C14.8466 2.88531 14.7302 3.16175 14.6828 3.4537C14.6353 3.74566 14.6582 4.04471 14.7494 4.32606C14.8407 4.60742 14.9977 4.86297 15.2075 5.07148Z" fill="url(#paint2_linear_53_45)"/>
<path d="M6.09136 11.6783C4.20644 15.5578 3.57191 19.9266 4.27529 24.1821C4.97868 28.4375 6.98533 32.3698 10.0184 35.4364C10.3373 35.7716 10.7668 35.9799 11.2275 36.0229C11.6881 36.0658 12.1488 35.9406 12.5242 35.6702C12.7369 35.5095 12.9127 35.305 13.0396 35.0706C13.1666 34.8362 13.2418 34.5773 13.2602 34.3113C13.2786 34.0454 13.2397 33.7786 13.1463 33.5289C13.0528 33.2793 12.9068 33.0526 12.7183 32.8641C10.2126 30.3523 8.55007 27.1234 7.96106 23.6248C7.37205 20.1261 7.88572 16.5308 9.43088 13.3371C9.60283 12.9875 9.66139 12.5929 9.59839 12.2084C9.53543 11.8239 9.35402 11.4687 9.07953 11.1922C8.87082 10.9822 8.61511 10.8251 8.33353 10.7338C8.05195 10.6425 7.75267 10.6197 7.46051 10.6672C7.16834 10.7148 6.89173 10.8313 6.65361 11.0071C6.4155 11.183 6.22274 11.4131 6.09136 11.6783Z" fill="url(#paint3_linear_53_45)"/>
<path d="M96.8899 100.81C93.7024 102.349 90.1162 102.862 86.6252 102.276C83.1346 101.691 79.9112 100.037 77.4001 97.5425C77.0545 97.1955 76.5884 96.9952 76.0989 96.9842C75.6089 96.9727 75.1343 97.1515 74.7734 97.4827C74.5927 97.6539 74.4483 97.8599 74.3484 98.0879C74.249 98.316 74.1959 98.5617 74.1926 98.8107C74.1892 99.0598 74.236 99.3069 74.3297 99.5373C74.4234 99.7682 74.5625 99.9776 74.7385 100.154C77.8007 103.208 81.7378 105.234 86.0037 105.951C90.2692 106.667 94.6522 106.038 98.5444 104.15C98.8092 104.019 99.0391 103.826 99.215 103.588C99.3905 103.35 99.5066 103.074 99.554 102.782C99.6013 102.49 99.5783 102.19 99.487 101.909C99.3957 101.628 99.2385 101.372 99.0286 101.164C98.7533 100.89 98.399 100.709 98.0157 100.645C97.6328 100.582 97.2388 100.639 96.8899 100.81Z" fill="url(#paint4_linear_53_45)"/>
<path d="M101.483 70.7719C101.151 71.1328 100.973 71.6075 100.984 72.0974C100.995 72.5869 101.195 73.0535 101.543 73.3986C104.039 75.9116 105.693 79.1379 106.277 82.6313C106.861 86.1252 106.346 89.7138 104.803 92.9023C104.632 93.2517 104.574 93.6456 104.637 94.0295C104.7 94.4133 104.882 94.768 105.156 95.0438C105.364 95.2537 105.62 95.4105 105.901 95.5023C106.182 95.5936 106.481 95.6165 106.773 95.5692C107.064 95.5219 107.341 95.4062 107.579 95.2307C107.817 95.0553 108.01 94.8259 108.141 94.561C110.034 90.6679 110.668 86.282 109.953 82.0127C109.239 77.743 107.213 73.8021 104.156 70.737C103.98 70.5606 103.77 70.4215 103.539 70.3273C103.308 70.2331 103.061 70.1863 102.812 70.1896C102.563 70.193 102.317 70.246 102.088 70.3464C101.86 70.4463 101.654 70.5907 101.483 70.7719Z" fill="url(#paint5_linear_53_45)"/>
<path d="M104.806 13.3395C106.348 16.5273 106.862 20.1151 106.277 23.6075C105.692 27.0999 104.038 30.3247 101.543 32.8369C101.195 33.1822 100.995 33.6484 100.984 34.138C100.973 34.6275 101.151 35.1024 101.483 35.4632C101.654 35.6438 101.86 35.7883 102.088 35.8881C102.316 35.9879 102.562 36.041 102.811 36.0443C103.06 36.0476 103.306 36.001 103.537 35.9073C103.768 35.8135 103.978 35.6746 104.154 35.4986C107.21 32.4348 109.236 28.4956 109.952 24.2277C110.667 19.9598 110.036 15.575 108.146 11.6821C108.015 11.4173 107.821 11.1876 107.583 11.0122C107.345 10.8367 107.069 10.7205 106.777 10.6733C106.485 10.6261 106.186 10.6491 105.905 10.7405C105.623 10.8319 105.368 10.989 105.16 11.1989C104.886 11.4746 104.704 11.829 104.641 12.2126C104.578 12.5963 104.635 12.9901 104.806 13.3395Z" fill="url(#paint6_linear_53_45)"/>
<path d="M77.3987 8.69295C79.9107 6.1973 83.1355 4.54298 86.628 3.95833C90.1205 3.37367 93.7081 3.88754 96.8961 5.42896C97.2455 5.60005 97.6394 5.65794 98.0228 5.5946C98.4067 5.53131 98.7609 5.3499 99.0367 5.0757C99.2466 4.86733 99.4038 4.6119 99.4951 4.33064C99.5864 4.04937 99.6094 3.75038 99.5621 3.45844C99.5152 3.1665 99.399 2.89003 99.2236 2.65195C99.0482 2.41388 98.8182 2.22105 98.5534 2.08947C94.6603 0.199295 90.2758 -0.43188 86.008 0.283582C81.7401 0.999046 77.8007 3.02563 74.737 6.08195C74.5611 6.25801 74.422 6.46748 74.3283 6.69809C74.2346 6.92874 74.1877 7.17578 74.1911 7.42469C74.1944 7.67365 74.2475 7.9194 74.3469 8.14747C74.4468 8.37559 74.5912 8.58138 74.7719 8.75271C75.1328 9.08379 75.6075 9.26243 76.0975 9.25129C76.587 9.24015 77.0531 9.0401 77.3987 8.69295Z" fill="url(#paint7_linear_53_45)"/>
<path d="M36.8369 97.5426C34.3247 100.038 31.0999 101.692 27.6075 102.277C24.1151 102.862 20.5273 102.348 17.3395 100.806C16.9902 100.635 16.5963 100.578 16.2126 100.641C15.829 100.704 15.4746 100.886 15.1988 101.16C14.989 101.368 14.8319 101.624 14.7405 101.905C14.6491 102.186 14.6261 102.485 14.6733 102.777C14.7206 103.069 14.8367 103.345 15.0122 103.583C15.1876 103.821 15.4173 104.015 15.6821 104.146C19.575 106.036 23.9598 106.667 28.2277 105.952C32.4956 105.236 36.4348 103.21 39.4985 100.154C39.6746 99.9777 39.8136 99.7678 39.9073 99.5374C40.001 99.307 40.0476 99.0598 40.0443 98.8108C40.041 98.5617 39.9879 98.316 39.8881 98.088C39.7883 97.86 39.6438 97.6539 39.4632 97.4828C39.1025 97.1515 38.6276 96.9728 38.138 96.9838C37.6484 96.9952 37.1821 97.195 36.8369 97.5426Z" fill="url(#paint8_linear_53_45)"/>
<path d="M9.42947 92.8961C7.88782 89.7081 7.37381 86.1205 7.95838 82.628C8.54295 79.1355 10.1973 75.9107 12.693 73.3987C13.0401 73.0531 13.2402 72.587 13.2513 72.0975C13.2625 71.6075 13.0838 71.1328 12.7527 70.7719C12.5814 70.5912 12.3756 70.4468 12.1475 70.3469C11.9194 70.2475 11.6736 70.1944 11.4247 70.1911C11.1758 70.1877 10.9287 70.2346 10.6981 70.3283C10.4675 70.422 10.258 70.5611 10.082 70.737C7.02564 73.8007 4.99904 77.7401 4.28358 82.008C3.56812 86.2758 4.19929 90.6603 6.08947 94.5534C6.22105 94.8182 6.41388 95.0482 6.65195 95.2236C6.89003 95.399 7.1665 95.5152 7.45844 95.5621C7.75038 95.6094 8.04938 95.5864 8.33064 95.4951C8.61191 95.4038 8.86731 95.2466 9.07573 95.0367C9.34988 94.7609 9.53124 94.4067 9.59468 94.0228C9.65806 93.6394 9.60032 93.2455 9.42947 92.8961Z" fill="url(#paint9_linear_53_45)"/>
</g>
</g>
<defs>
<filter id="filter0_d_53_45" x="143.633" y="16.59" width="259.527" height="87.74" filterUnits="userSpaceOnUse" color-interpolation-filters="sRGB">
<feFlood flood-opacity="0" result="BackgroundImageFix"/>
<feColorMatrix in="SourceAlpha" type="matrix" values="0 0 0 0 0 0 0 0 0 0 0 0 0 0 0 0 0 0 127 0" result="hardAlpha"/>
<feOffset dy="4"/>
<feGaussianBlur stdDeviation="2"/>
<feComposite in2="hardAlpha" operator="out"/>
<feColorMatrix type="matrix" values="0 0 0 0 0 0 0 0 0 0 0 0 0 0 0 0 0 0 0.25 0"/>
<feBlend mode="normal" in2="BackgroundImageFix" result="effect1_dropShadow_53_45"/>
<feBlend mode="normal" in="SourceGraphic" in2="effect1_dropShadow_53_45" result="shape"/>
</filter>
<filter id="filter1_d_53_45" x="0" y="0" width="114.235" height="114.235" filterUnits="userSpaceOnUse" color-interpolation-filters="sRGB">
<feFlood flood-opacity="0" result="BackgroundImageFix"/>
<feColorMatrix in="SourceAlpha" type="matrix" values="0 0 0 0 0 0 0 0 0 0 0 0 0 0 0 0 0 0 127 0" result="hardAlpha"/>
<feOffset dy="4"/>
<feGaussianBlur stdDeviation="2"/>
<feComposite in2="hardAlpha" operator="out"/>
<feColorMatrix type="matrix" values="0 0 0 0 0 0 0 0 0 0 0 0 0 0 0 0 0 0 0.25 0"/>
<feBlend mode="normal" in2="BackgroundImageFix" result="effect1_dropShadow_53_45"/>
<feBlend mode="normal" in="SourceGraphic" in2="effect1_dropShadow_53_45" result="shape"/>
</filter>
<linearGradient id="paint0_linear_53_45" x1="153.623" y1="63.5824" x2="399" y2="63.5824" gradientUnits="userSpaceOnUse">
<stop offset="0.744792" stop-color="#0047FF"/>
<stop offset="0.859375" stop-color="#2AC3D1"/>
</linearGradient>
<linearGradient id="paint1_linear_53_45" x1="57.1178" y1="100.45" x2="57.1178" y2="37.9801" gradientUnits="userSpaceOnUse">
<stop offset="0.614583" stop-color="#0047FF"/>
<stop offset="1" stop-color="#2AC3D1"/>
</linearGradient>
<linearGradient id="paint2_linear_53_45" x1="27.3517" y1="100.476" x2="27.3517" y2="37.9902" gradientUnits="userSpaceOnUse">
<stop offset="0.536458" stop-color="#0047FF"/>
<stop offset="1" stop-color="#2AC3D1"/>
</linearGradient>
<linearGradient id="paint3_linear_53_45" x1="8.63049" y1="100.441" x2="8.63049" y2="37.986" gradientUnits="userSpaceOnUse">
<stop offset="0.53125" stop-color="#0047FF"/>
<stop offset="1" stop-color="#2AC3D1"/>
</linearGradient>
<linearGradient id="paint4_linear_53_45" x1="86.8852" y1="100.445" x2="86.8852" y2="37.9674" gradientUnits="userSpaceOnUse">
<stop offset="0.515625" stop-color="#0047FF"/>
<stop offset="1" stop-color="#2AC3D1"/>
</linearGradient>
<linearGradient id="paint5_linear_53_45" x1="105.611" y1="100.445" x2="105.611" y2="37.9779" gradientUnits="userSpaceOnUse">
<stop offset="0.536458" stop-color="#0047FF"/>
<stop offset="1" stop-color="#2AC3D1"/>
</linearGradient>
<linearGradient id="paint6_linear_53_45" x1="105.611" y1="100.447" x2="105.611" y2="37.9745" gradientUnits="userSpaceOnUse">
<stop offset="0.526042" stop-color="#0047FF"/>
<stop offset="1" stop-color="#2AC3D1"/>
</linearGradient>
<linearGradient id="paint7_linear_53_45" x1="86.8885" y1="100.478" x2="86.8885" y2="37.9885" gradientUnits="userSpaceOnUse">
<stop offset="0.609375" stop-color="#0047FF"/>
<stop offset="1" stop-color="#2AC3D1"/>
</linearGradient>
<linearGradient id="paint8_linear_53_45" x1="27.3469" y1="100.445" x2="27.3469" y2="37.9636" gradientUnits="userSpaceOnUse">
<stop offset="0.53125" stop-color="#0047FF"/>
<stop offset="1" stop-color="#2AC3D1"/>
</linearGradient>
<linearGradient id="paint9_linear_53_45" x1="8.62432" y1="100.437" x2="8.62432" y2="37.9896" gradientUnits="userSpaceOnUse">
<stop offset="0.541667" stop-color="#0047FF"/>
<stop offset="1" stop-color="#2AC3D1"/>
</linearGradient>
</defs>
</svg>
